<svg width="1920" height="1080" viewBox="0 0 1920 1080" fill="none" xmlns="http://www.w3.org/2000/svg">
<g clip-path="url(#clip0_85_8)">
<rect width="1920" height="1080" fill="#C06626"/>
<path opacity="0.2" d="M45.599 120.763L66.3148 77.8895L88.7888 88.7486L90.2888 119.185L115.297 101.557L136.849 111.97L116.133 154.844L99.9401 147.02L112.86 120.281L84.8997 139.752L76.544 135.715L74.4808 101.737L61.5613 128.476L45.599 120.763ZM172.639 128.268L175.232 129.521C179.035 131.359 182.363 133.299 185.215 135.34C188.124 137.361 190.43 139.305 192.135 141.171C193.896 143.018 195.268 144.936 196.249 146.926C197.287 148.897 197.97 150.72 198.298 152.395C198.626 154.069 198.706 155.767 198.539 157.486C198.41 159.225 198.134 160.726 197.712 161.992C197.329 163.275 196.822 164.57 196.191 165.877L195.355 167.605C194.724 168.911 194.025 170.114 193.257 171.212C192.528 172.328 191.514 173.497 190.213 174.717C188.97 175.916 187.581 176.928 186.047 177.75C184.569 178.552 182.727 179.178 180.519 179.628C178.311 180.078 175.947 180.215 173.426 180.039C170.904 179.863 167.948 179.264 164.556 178.241C161.185 177.276 157.578 175.865 153.736 174.008L151.143 172.755C147.302 170.899 143.936 168.941 141.045 166.881C138.175 164.878 135.868 162.934 134.125 161.05C132.42 159.183 131.058 157.246 130.039 155.237C129.019 153.228 128.346 151.386 128.018 149.711C127.747 148.016 127.676 146.3 127.805 144.562C127.991 142.804 128.276 141.283 128.659 139.999C129.081 138.734 129.607 137.448 130.238 136.142L131.074 134.413C131.705 133.107 132.385 131.895 133.114 130.779C133.881 129.681 134.887 128.532 136.13 127.332C137.412 126.15 138.791 125.158 140.269 124.356C141.785 123.572 143.637 122.974 145.826 122.563C148.034 122.113 150.389 121.996 152.892 122.21C155.451 122.404 158.408 123.003 161.761 124.008C165.171 124.992 168.797 126.412 172.639 128.268ZM178.664 158.901L179.054 158.094C179.666 156.826 180.002 155.543 180.061 154.245C180.138 152.908 179.87 151.451 179.257 149.876C178.683 148.319 177.468 146.713 175.614 145.059C173.76 143.405 171.334 141.854 168.338 140.406C165.264 138.921 162.503 137.966 160.055 137.541C157.607 137.116 155.594 137.163 154.017 137.68C152.44 138.198 151.152 138.902 150.153 139.794C149.211 140.665 148.433 141.735 147.821 143.002L147.486 143.694C146.874 144.962 146.52 146.283 146.424 147.659C146.347 148.995 146.577 150.481 147.114 152.115C147.67 153.71 148.866 155.354 150.702 157.047C152.576 158.758 155.011 160.337 158.008 161.785C161.004 163.233 163.727 164.169 166.175 164.594C168.68 164.999 170.731 164.924 172.326 164.368C173.922 163.812 175.219 163.088 176.218 162.197C177.236 161.267 178.051 160.168 178.664 158.901ZM210.154 147.39L228.479 156.245L241.595 192.649L253.373 168.273L269.624 176.125L248.908 218.999L232.542 211.091L218.246 172.126L205.689 198.116L189.438 190.264L210.154 147.39ZM282.859 236.398L281.534 235.758C277.039 233.586 273.266 231.195 270.216 228.583C267.184 225.934 264.974 223.397 263.586 220.973C262.217 218.511 261.334 215.975 260.936 213.366C260.556 210.719 260.562 208.353 260.954 206.267C261.403 204.162 262.1 202.13 263.047 200.171L263.827 198.557C264.81 196.521 265.969 194.711 267.302 193.129C268.654 191.507 270.467 190.061 272.74 188.79C275.069 187.499 277.644 186.682 280.464 186.338C283.34 185.975 286.836 186.242 290.951 187.141C295.123 188.019 299.629 189.628 304.47 191.967L306.717 193.053C311.711 195.466 315.896 197.985 319.271 200.611C322.703 203.217 325.159 205.589 326.638 207.725C328.174 209.841 329.186 212.013 329.674 214.239C330.22 216.445 330.369 218.294 330.122 219.786C329.893 221.239 329.455 222.686 328.807 224.126L328.779 224.183L311.721 215.942C311.812 215.559 311.835 215.167 311.791 214.767C311.805 214.347 311.643 213.7 311.307 212.827C310.971 211.954 310.435 211.103 309.698 210.273C309.019 209.423 307.87 208.418 306.251 207.257C304.651 206.057 302.718 204.91 300.451 203.815C290.578 199.044 283.933 200.193 280.518 207.262L280.212 207.896C278.745 210.931 278.712 214.089 280.111 217.372C281.529 220.616 284.716 223.435 289.672 225.829C291.784 226.85 293.77 227.644 295.629 228.21C297.506 228.738 299.066 229.042 300.307 229.12C301.587 229.217 302.713 229.193 303.684 229.046C304.693 228.918 305.435 228.707 305.908 228.415C306.419 228.141 306.749 227.85 306.898 227.543L291.858 220.275L295.895 211.92L327.647 227.262L315.98 251.407L305.665 246.423C306.299 243.933 306.583 241.63 306.516 239.513C300.272 242.04 292.386 241.002 282.859 236.398ZM350.291 268.98L345.047 266.447C327.606 258.019 321.336 248.735 326.236 238.592L326.515 238.016L344.494 246.703C342.852 250.886 345.45 254.629 352.289 257.933L352.807 258.184C354.997 259.242 356.868 260.027 358.421 260.541C359.992 261.016 361.216 261.228 362.093 261.178C362.989 261.089 363.654 260.89 364.089 260.578C364.581 260.247 364.966 259.794 365.244 259.217L365.272 259.16C365.662 258.353 365.757 257.617 365.557 256.952C365.414 256.267 364.658 255.38 363.288 254.292C361.976 253.184 359.897 251.895 357.053 250.426L349.212 246.353C335.375 239.194 330.443 231.503 334.416 223.282L334.666 222.763C335.39 221.265 336.251 220.023 337.249 219.036C338.266 218.011 339.61 217.191 341.281 216.577C342.952 215.963 344.876 215.708 347.052 215.812C349.229 215.916 351.889 216.443 355.031 217.393C358.231 218.322 361.771 219.725 365.651 221.6L370.779 224.078C388.144 232.468 394.645 241.177 390.283 250.205L390.06 250.666L372.254 242.062C373.374 238.86 370.65 235.672 364.081 232.498L363.505 232.22C360.815 230.92 358.657 230.091 357.03 229.731C355.422 229.333 354.343 229.262 353.793 229.517C353.262 229.735 352.838 230.17 352.523 230.823L352.495 230.88C352.179 231.533 352.111 232.164 352.291 232.772C352.51 233.399 353.246 234.229 354.5 235.261C355.773 236.255 357.688 237.394 360.243 238.676L367.881 242.58C375.876 246.727 381.129 250.663 383.641 254.388C386.172 258.075 386.389 262.089 384.291 266.43L383.901 267.237C383.14 268.812 382.252 270.16 381.237 271.281C380.24 272.363 378.841 273.298 377.038 274.085C375.255 274.835 373.18 275.206 370.813 275.2C368.504 275.174 365.577 274.66 362.034 273.659C358.547 272.638 354.633 271.078 350.291 268.98ZM373.723 290.822L377.677 282.639L426.371 306.167L422.417 314.35L373.723 290.822ZM450.449 263.497L468.774 272.351L481.89 308.755L493.668 284.379L509.918 292.231L489.203 335.105L472.837 327.197L458.541 288.233L445.983 314.222L429.733 306.37L450.449 263.497ZM515.446 294.902L561.95 317.372L556.883 327.86L526.572 313.214L523.982 318.574L553.659 332.913L548.564 343.459L518.887 329.119L510.924 345.6L494.731 337.776L515.446 294.902ZM563.17 370.845L578.233 339.669L559.735 330.731L565.388 319.033L618.749 344.817L613.097 356.515L594.599 347.577L579.535 378.752L563.17 370.845Z" fill="#1E1E1E"/>
<path opacity="0.2" d="M701.599 120.763L722.315 77.8895L744.789 88.7486L746.289 119.185L771.297 101.557L792.849 111.97L772.133 154.844L755.94 147.02L768.86 120.281L740.9 139.752L732.544 135.715L730.481 101.737L717.561 128.476L701.599 120.763ZM828.639 128.268L831.232 129.521C835.035 131.359 838.363 133.299 841.215 135.34C844.124 137.361 846.43 139.305 848.135 141.171C849.896 143.018 851.268 144.936 852.249 146.926C853.287 148.897 853.97 150.72 854.298 152.395C854.626 154.069 854.706 155.767 854.539 157.486C854.41 159.225 854.134 160.726 853.712 161.992C853.329 163.275 852.822 164.57 852.191 165.877L851.355 167.605C850.724 168.911 850.025 170.114 849.257 171.212C848.528 172.328 847.514 173.497 846.213 174.717C844.97 175.916 843.581 176.928 842.047 177.75C840.569 178.552 838.727 179.178 836.519 179.628C834.311 180.078 831.947 180.215 829.426 180.039C826.904 179.863 823.948 179.264 820.556 178.241C817.185 177.276 813.578 175.865 809.736 174.008L807.143 172.755C803.302 170.899 799.936 168.941 797.045 166.881C794.175 164.878 791.868 162.934 790.125 161.05C788.42 159.183 787.058 157.246 786.039 155.237C785.019 153.228 784.346 151.386 784.018 149.711C783.747 148.016 783.676 146.3 783.805 144.562C783.991 142.804 784.276 141.283 784.659 139.999C785.081 138.734 785.607 137.448 786.238 136.142L787.074 134.413C787.705 133.107 788.385 131.895 789.114 130.779C789.881 129.681 790.887 128.532 792.13 127.332C793.412 126.15 794.791 125.158 796.269 124.356C797.785 123.572 799.637 122.974 801.826 122.563C804.034 122.113 806.389 121.996 808.892 122.21C811.451 122.404 814.408 123.003 817.761 124.008C821.171 124.992 824.797 126.412 828.639 128.268ZM834.664 158.901L835.054 158.094C835.666 156.826 836.002 155.543 836.061 154.245C836.138 152.908 835.87 151.451 835.257 149.876C834.683 148.319 833.468 146.713 831.614 145.059C829.76 143.405 827.334 141.854 824.338 140.406C821.264 138.921 818.503 137.966 816.055 137.541C813.607 137.116 811.594 137.163 810.017 137.68C808.44 138.198 807.152 138.902 806.153 139.794C805.211 140.665 804.433 141.735 803.821 143.002L803.486 143.694C802.874 144.962 802.52 146.283 802.424 147.659C802.347 148.995 802.577 150.481 803.114 152.115C803.67 153.71 804.866 155.354 806.702 157.047C808.576 158.758 811.011 160.337 814.008 161.785C817.004 163.233 819.727 164.169 822.175 164.594C824.68 164.999 826.731 164.924 828.326 164.368C829.922 163.812 831.219 163.088 832.218 162.197C833.236 161.267 834.051 160.168 834.664 158.901ZM866.154 147.39L884.479 156.245L897.595 192.649L909.373 168.273L925.624 176.125L904.908 218.999L888.542 211.091L874.246 172.126L861.689 198.116L845.438 190.264L866.154 147.39ZM938.859 236.398L937.534 235.758C933.039 233.586 929.266 231.195 926.216 228.583C923.184 225.934 920.974 223.397 919.586 220.973C918.217 218.511 917.334 215.975 916.936 213.366C916.556 210.719 916.562 208.353 916.954 206.267C917.403 204.162 918.1 202.13 919.047 200.171L919.827 198.557C920.81 196.521 921.969 194.711 923.302 193.129C924.654 191.507 926.467 190.061 928.74 188.79C931.069 187.499 933.644 186.682 936.464 186.338C939.34 185.975 942.836 186.242 946.951 187.141C951.123 188.019 955.629 189.628 960.47 191.967L962.717 193.053C967.711 195.466 971.896 197.985 975.271 200.611C978.703 203.217 981.159 205.589 982.638 207.725C984.174 209.841 985.186 212.013 985.674 214.239C986.22 216.445 986.369 218.294 986.122 219.786C985.893 221.239 985.455 222.686 984.807 224.126L984.779 224.183L967.721 215.942C967.812 215.559 967.835 215.167 967.791 214.767C967.805 214.347 967.643 213.7 967.307 212.827C966.971 211.954 966.435 211.103 965.698 210.273C965.019 209.423 963.87 208.418 962.251 207.257C960.651 206.057 958.718 204.91 956.451 203.815C946.578 199.044 939.933 200.193 936.518 207.262L936.212 207.896C934.745 210.931 934.712 214.089 936.111 217.372C937.529 220.616 940.716 223.435 945.672 225.829C947.784 226.85 949.77 227.644 951.629 228.21C953.506 228.738 955.066 229.042 956.307 229.12C957.587 229.217 958.713 229.193 959.684 229.046C960.693 228.918 961.435 228.707 961.908 228.415C962.419 228.141 962.749 227.85 962.898 227.543L947.858 220.275L951.895 211.92L983.647 227.262L971.98 251.407L961.665 246.423C962.299 243.933 962.583 241.63 962.516 239.513C956.272 242.04 948.386 241.002 938.859 236.398ZM1006.29 268.98L1001.05 266.447C983.606 258.019 977.336 248.735 982.236 238.592L982.515 238.016L1000.49 246.703C998.852 250.886 1001.45 254.629 1008.29 257.933L1008.81 258.184C1011 259.242 1012.87 260.027 1014.42 260.541C1015.99 261.016 1017.22 261.228 1018.09 261.178C1018.99 261.089 1019.65 260.89 1020.09 260.578C1020.58 260.247 1020.97 259.794 1021.24 259.217L1021.27 259.16C1021.66 258.353 1021.76 257.617 1021.56 256.952C1021.41 256.267 1020.66 255.38 1019.29 254.292C1017.98 253.184 1015.9 251.895 1013.05 250.426L1005.21 246.353C991.375 239.194 986.443 231.503 990.416 223.282L990.666 222.763C991.39 221.265 992.251 220.023 993.249 219.036C994.266 218.011 995.61 217.191 997.281 216.577C998.952 215.963 1000.88 215.708 1003.05 215.812C1005.23 215.916 1007.89 216.443 1011.03 217.393C1014.23 218.322 1017.77 219.725 1021.65 221.6L1026.78 224.078C1044.14 232.468 1050.65 241.177 1046.28 250.205L1046.06 250.666L1028.25 242.062C1029.37 238.86 1026.65 235.672 1020.08 232.498L1019.5 232.22C1016.82 230.92 1014.66 230.091 1013.03 229.731C1011.42 229.333 1010.34 229.262 1009.79 229.517C1009.26 229.735 1008.84 230.17 1008.52 230.823L1008.49 230.88C1008.18 231.533 1008.11 232.164 1008.29 232.772C1008.51 233.399 1009.25 234.229 1010.5 235.261C1011.77 236.255 1013.69 237.394 1016.24 238.676L1023.88 242.58C1031.88 246.727 1037.13 250.663 1039.64 254.388C1042.17 258.075 1042.39 262.089 1040.29 266.43L1039.9 267.237C1039.14 268.812 1038.25 270.16 1037.24 271.281C1036.24 272.363 1034.84 273.298 1033.04 274.085C1031.25 274.835 1029.18 275.206 1026.81 275.2C1024.5 275.174 1021.58 274.66 1018.03 273.659C1014.55 272.638 1010.63 271.078 1006.29 268.98ZM1029.72 290.822L1033.68 282.639L1082.37 306.167L1078.42 314.35L1029.72 290.822ZM1106.45 263.497L1124.77 272.351L1137.89 308.755L1149.67 284.379L1165.92 292.231L1145.2 335.105L1128.84 327.197L1114.54 288.233L1101.98 314.222L1085.73 306.37L1106.45 263.497ZM1171.45 294.902L1217.95 317.372L1212.88 327.86L1182.57 313.214L1179.98 318.574L1209.66 332.913L1204.56 343.459L1174.89 329.119L1166.92 345.6L1150.73 337.776L1171.45 294.902ZM1219.17 370.845L1234.23 339.669L1215.74 330.731L1221.39 319.033L1274.75 344.817L1269.1 356.515L1250.6 347.577L1235.54 378.752L1219.17 370.845Z" fill="#1E1E1E"/>
<path opacity="0.2" d="M1357.6 120.763L1378.31 77.8895L1400.79 88.7486L1402.29 119.185L1427.3 101.557L1448.85 111.97L1428.13 154.844L1411.94 147.02L1424.86 120.281L1396.9 139.752L1388.54 135.715L1386.48 101.737L1373.56 128.476L1357.6 120.763ZM1484.64 128.268L1487.23 129.521C1491.04 131.359 1494.36 133.299 1497.21 135.34C1500.12 137.361 1502.43 139.305 1504.13 141.171C1505.9 143.018 1507.27 144.936 1508.25 146.926C1509.29 148.897 1509.97 150.72 1510.3 152.395C1510.63 154.069 1510.71 155.767 1510.54 157.486C1510.41 159.225 1510.13 160.726 1509.71 161.992C1509.33 163.275 1508.82 164.57 1508.19 165.877L1507.36 167.605C1506.72 168.911 1506.02 170.114 1505.26 171.212C1504.53 172.328 1503.51 173.497 1502.21 174.717C1500.97 175.916 1499.58 176.928 1498.05 177.75C1496.57 178.552 1494.73 179.178 1492.52 179.628C1490.31 180.078 1487.95 180.215 1485.43 180.039C1482.9 179.863 1479.95 179.264 1476.56 178.241C1473.18 177.276 1469.58 175.865 1465.74 174.008L1463.14 172.755C1459.3 170.899 1455.94 168.941 1453.05 166.881C1450.17 164.878 1447.87 162.934 1446.13 161.05C1444.42 159.183 1443.06 157.246 1442.04 155.237C1441.02 153.228 1440.35 151.386 1440.02 149.711C1439.75 148.016 1439.68 146.3 1439.8 144.562C1439.99 142.804 1440.28 141.283 1440.66 139.999C1441.08 138.734 1441.61 137.448 1442.24 136.142L1443.07 134.413C1443.7 133.107 1444.38 131.895 1445.11 130.779C1445.88 129.681 1446.89 128.532 1448.13 127.332C1449.41 126.15 1450.79 125.158 1452.27 124.356C1453.78 123.572 1455.64 122.974 1457.83 122.563C1460.03 122.113 1462.39 121.996 1464.89 122.21C1467.45 122.404 1470.41 123.003 1473.76 124.008C1477.17 124.992 1480.8 126.412 1484.64 128.268ZM1490.66 158.901L1491.05 158.094C1491.67 156.826 1492 155.543 1492.06 154.245C1492.14 152.908 1491.87 151.451 1491.26 149.876C1490.68 148.319 1489.47 146.713 1487.61 145.059C1485.76 143.405 1483.33 141.854 1480.34 140.406C1477.26 138.921 1474.5 137.966 1472.06 137.541C1469.61 137.116 1467.59 137.163 1466.02 137.68C1464.44 138.198 1463.15 138.902 1462.15 139.794C1461.21 140.665 1460.43 141.735 1459.82 143.002L1459.49 143.694C1458.87 144.962 1458.52 146.283 1458.42 147.659C1458.35 148.995 1458.58 150.481 1459.11 152.115C1459.67 153.71 1460.87 155.354 1462.7 157.047C1464.58 158.758 1467.01 160.337 1470.01 161.785C1473 163.233 1475.73 164.169 1478.17 164.594C1480.68 164.999 1482.73 164.924 1484.33 164.368C1485.92 163.812 1487.22 163.088 1488.22 162.197C1489.24 161.267 1490.05 160.168 1490.66 158.901ZM1522.15 147.39L1540.48 156.245L1553.6 192.649L1565.37 168.273L1581.62 176.125L1560.91 218.999L1544.54 211.091L1530.25 172.126L1517.69 198.116L1501.44 190.264L1522.15 147.39ZM1594.86 236.398L1593.53 235.758C1589.04 233.586 1585.27 231.195 1582.22 228.583C1579.18 225.934 1576.97 223.397 1575.59 220.973C1574.22 218.511 1573.33 215.975 1572.94 213.366C1572.56 210.719 1572.56 208.353 1572.95 206.267C1573.4 204.162 1574.1 202.13 1575.05 200.171L1575.83 198.557C1576.81 196.521 1577.97 194.711 1579.3 193.129C1580.65 191.507 1582.47 190.061 1584.74 188.79C1587.07 187.499 1589.64 186.682 1592.46 186.338C1595.34 185.975 1598.84 186.242 1602.95 187.141C1607.12 188.019 1611.63 189.628 1616.47 191.967L1618.72 193.053C1623.71 195.466 1627.9 197.985 1631.27 200.611C1634.7 203.217 1637.16 205.589 1638.64 207.725C1640.17 209.841 1641.19 212.013 1641.67 214.239C1642.22 216.445 1642.37 218.294 1642.12 219.786C1641.89 221.239 1641.45 222.686 1640.81 224.126L1640.78 224.183L1623.72 215.942C1623.81 215.559 1623.84 215.167 1623.79 214.767C1623.8 214.347 1623.64 213.7 1623.31 212.827C1622.97 211.954 1622.43 211.103 1621.7 210.273C1621.02 209.423 1619.87 208.418 1618.25 207.257C1616.65 206.057 1614.72 204.91 1612.45 203.815C1602.58 199.044 1595.93 200.193 1592.52 207.262L1592.21 207.896C1590.75 210.931 1590.71 214.089 1592.11 217.372C1593.53 220.616 1596.72 223.435 1601.67 225.829C1603.78 226.85 1605.77 227.644 1607.63 228.21C1609.51 228.738 1611.07 229.042 1612.31 229.12C1613.59 229.217 1614.71 229.193 1615.68 229.046C1616.69 228.918 1617.43 228.707 1617.91 228.415C1618.42 228.141 1618.75 227.85 1618.9 227.543L1603.86 220.275L1607.89 211.92L1639.65 227.262L1627.98 251.407L1617.67 246.423C1618.3 243.933 1618.58 241.63 1618.52 239.513C1612.27 242.04 1604.39 241.002 1594.86 236.398ZM1662.29 268.98L1657.05 266.447C1639.61 258.019 1633.34 248.735 1638.24 238.592L1638.51 238.016L1656.49 246.703C1654.85 250.886 1657.45 254.629 1664.29 257.933L1664.81 258.184C1667 259.242 1668.87 260.027 1670.42 260.541C1671.99 261.016 1673.22 261.228 1674.09 261.178C1674.99 261.089 1675.65 260.89 1676.09 260.578C1676.58 260.247 1676.97 259.794 1677.24 259.217L1677.27 259.16C1677.66 258.353 1677.76 257.617 1677.56 256.952C1677.41 256.267 1676.66 255.38 1675.29 254.292C1673.98 253.184 1671.9 251.895 1669.05 250.426L1661.21 246.353C1647.38 239.194 1642.44 231.503 1646.42 223.282L1646.67 222.763C1647.39 221.265 1648.25 220.023 1649.25 219.036C1650.27 218.011 1651.61 217.191 1653.28 216.577C1654.95 215.963 1656.88 215.708 1659.05 215.812C1661.23 215.916 1663.89 216.443 1667.03 217.393C1670.23 218.322 1673.77 219.725 1677.65 221.6L1682.78 224.078C1700.14 232.468 1706.65 241.177 1702.28 250.205L1702.06 250.666L1684.25 242.062C1685.37 238.86 1682.65 235.672 1676.08 232.498L1675.5 232.22C1672.82 230.92 1670.66 230.091 1669.03 229.731C1667.42 229.333 1666.34 229.262 1665.79 229.517C1665.26 229.735 1664.84 230.17 1664.52 230.823L1664.49 230.88C1664.18 231.533 1664.11 232.164 1664.29 232.772C1664.51 233.399 1665.25 234.229 1666.5 235.261C1667.77 236.255 1669.69 237.394 1672.24 238.676L1679.88 242.58C1687.88 246.727 1693.13 250.663 1695.64 254.388C1698.17 258.075 1698.39 262.089 1696.29 266.43L1695.9 267.237C1695.14 268.812 1694.25 270.16 1693.24 271.281C1692.24 272.363 1690.84 273.298 1689.04 274.085C1687.25 274.835 1685.18 275.206 1682.81 275.2C1680.5 275.174 1677.58 274.66 1674.03 273.659C1670.55 272.638 1666.63 271.078 1662.29 268.98ZM1685.72 290.822L1689.68 282.639L1738.37 306.167L1734.42 314.35L1685.72 290.822ZM1762.45 263.497L1780.77 272.351L1793.89 308.755L1805.67 284.379L1821.92 292.231L1801.2 335.105L1784.84 327.197L1770.54 288.233L1757.98 314.222L1741.73 306.37L1762.45 263.497ZM1827.45 294.902L1873.95 317.372L1868.88 327.86L1838.57 313.214L1835.98 318.574L1865.66 332.913L1860.56 343.459L1830.89 329.119L1822.92 345.6L1806.73 337.776L1827.45 294.902ZM1875.17 370.845L1890.23 339.669L1871.74 330.731L1877.39 319.033L1930.75 344.817L1925.1 356.515L1906.6 347.577L1891.54 378.752L1875.17 370.845Z" fill="#1E1E1E"/>
<path opacity="0.2" d="M45.599 350.763L66.3148 307.889L88.7888 318.749L90.2888 349.185L115.297 331.557L136.849 341.97L116.133 384.844L99.9401 377.02L112.86 350.281L84.8997 369.752L76.544 365.715L74.4808 331.737L61.5613 358.476L45.599 350.763ZM172.639 358.268L175.232 359.521C179.035 361.359 182.363 363.299 185.215 365.34C188.124 367.361 190.43 369.305 192.135 371.171C193.896 373.018 195.268 374.936 196.249 376.926C197.287 378.897 197.97 380.72 198.298 382.395C198.626 384.069 198.706 385.767 198.539 387.486C198.41 389.225 198.134 390.726 197.712 391.992C197.329 393.275 196.822 394.57 196.191 395.877L195.355 397.605C194.724 398.911 194.025 400.114 193.257 401.212C192.528 402.328 191.514 403.497 190.213 404.717C188.97 405.916 187.581 406.928 186.047 407.75C184.569 408.552 182.727 409.178 180.519 409.628C178.311 410.078 175.947 410.215 173.426 410.039C170.904 409.863 167.948 409.264 164.556 408.241C161.185 407.276 157.578 405.865 153.736 404.008L151.143 402.755C147.302 400.899 143.936 398.941 141.045 396.881C138.175 394.878 135.868 392.934 134.125 391.05C132.42 389.183 131.058 387.246 130.039 385.237C129.019 383.228 128.346 381.386 128.018 379.711C127.747 378.016 127.676 376.3 127.805 374.562C127.991 372.804 128.276 371.283 128.659 369.999C129.081 368.734 129.607 367.448 130.238 366.142L131.074 364.413C131.705 363.107 132.385 361.895 133.114 360.779C133.881 359.681 134.887 358.532 136.13 357.332C137.412 356.15 138.791 355.158 140.269 354.356C141.785 353.572 143.637 352.974 145.826 352.563C148.034 352.113 150.389 351.996 152.892 352.21C155.451 352.404 158.408 353.003 161.761 354.008C165.171 354.992 168.797 356.412 172.639 358.268ZM178.664 388.901L179.054 388.094C179.666 386.826 180.002 385.543 180.061 384.245C180.138 382.908 179.87 381.451 179.257 379.876C178.683 378.319 177.468 376.713 175.614 375.059C173.76 373.405 171.334 371.854 168.338 370.406C165.264 368.921 162.503 367.966 160.055 367.541C157.607 367.116 155.594 367.163 154.017 367.68C152.44 368.198 151.152 368.902 150.153 369.794C149.211 370.665 148.433 371.735 147.821 373.002L147.486 373.694C146.874 374.962 146.52 376.283 146.424 377.659C146.347 378.995 146.577 380.481 147.114 382.115C147.67 383.71 148.866 385.354 150.702 387.047C152.576 388.758 155.011 390.337 158.008 391.785C161.004 393.233 163.727 394.169 166.175 394.594C168.68 394.999 170.731 394.924 172.326 394.368C173.922 393.812 175.219 393.088 176.218 392.197C177.236 391.267 178.051 390.168 178.664 388.901ZM210.154 377.39L228.479 386.245L241.595 422.649L253.373 398.273L269.624 406.125L248.908 448.999L232.542 441.091L218.246 402.126L205.689 428.116L189.438 420.264L210.154 377.39ZM282.859 466.398L281.534 465.758C277.039 463.586 273.266 461.195 270.216 458.583C267.184 455.934 264.974 453.397 263.586 450.973C262.217 448.511 261.334 445.975 260.936 443.366C260.556 440.719 260.562 438.353 260.954 436.267C261.403 434.162 262.1 432.13 263.047 430.171L263.827 428.557C264.81 426.521 265.969 424.711 267.302 423.129C268.654 421.507 270.467 420.061 272.74 418.79C275.069 417.499 277.644 416.682 280.464 416.338C283.34 415.975 286.836 416.242 290.951 417.141C295.123 418.019 299.629 419.628 304.47 421.967L306.717 423.053C311.711 425.466 315.896 427.985 319.271 430.611C322.703 433.217 325.159 435.589 326.638 437.725C328.174 439.841 329.186 442.013 329.674 444.239C330.22 446.445 330.369 448.294 330.122 449.786C329.893 451.239 329.455 452.686 328.807 454.126L328.779 454.183L311.721 445.942C311.812 445.559 311.835 445.167 311.791 444.767C311.805 444.347 311.643 443.7 311.307 442.827C310.971 441.954 310.435 441.103 309.698 440.273C309.019 439.423 307.87 438.418 306.251 437.257C304.651 436.057 302.718 434.91 300.451 433.815C290.578 429.044 283.933 430.193 280.518 437.262L280.212 437.896C278.745 440.931 278.712 444.089 280.111 447.372C281.529 450.616 284.716 453.435 289.672 455.829C291.784 456.85 293.77 457.644 295.629 458.21C297.506 458.738 299.066 459.042 300.307 459.12C301.587 459.217 302.713 459.193 303.684 459.046C304.693 458.918 305.435 458.707 305.908 458.415C306.419 458.141 306.749 457.85 306.898 457.543L291.858 450.275L295.895 441.92L327.647 457.262L315.98 481.407L305.665 476.423C306.299 473.933 306.583 471.63 306.516 469.513C300.272 472.04 292.386 471.002 282.859 466.398ZM350.291 498.98L345.047 496.447C327.606 488.019 321.336 478.735 326.236 468.592L326.515 468.016L344.494 476.703C342.852 480.886 345.45 484.629 352.289 487.933L352.807 488.184C354.997 489.242 356.868 490.027 358.421 490.541C359.992 491.016 361.216 491.228 362.093 491.178C362.989 491.089 363.654 490.89 364.089 490.578C364.581 490.247 364.966 489.794 365.244 489.217L365.272 489.16C365.662 488.353 365.757 487.617 365.557 486.952C365.414 486.267 364.658 485.38 363.288 484.292C361.976 483.184 359.897 481.895 357.053 480.426L349.212 476.353C335.375 469.194 330.443 461.503 334.416 453.282L334.666 452.763C335.39 451.265 336.251 450.023 337.249 449.036C338.266 448.011 339.61 447.191 341.281 446.577C342.952 445.963 344.876 445.708 347.052 445.812C349.229 445.916 351.889 446.443 355.031 447.393C358.231 448.322 361.771 449.725 365.651 451.6L370.779 454.078C388.144 462.468 394.645 471.177 390.283 480.205L390.06 480.666L372.254 472.062C373.374 468.86 370.65 465.672 364.081 462.498L363.505 462.22C360.815 460.92 358.657 460.091 357.03 459.731C355.422 459.333 354.343 459.262 353.793 459.517C353.262 459.735 352.838 460.17 352.523 460.823L352.495 460.88C352.179 461.533 352.111 462.164 352.291 462.772C352.51 463.399 353.246 464.229 354.5 465.261C355.773 466.255 357.688 467.394 360.243 468.676L367.881 472.58C375.876 476.727 381.129 480.663 383.641 484.388C386.172 488.075 386.389 492.089 384.291 496.43L383.901 497.237C383.14 498.812 382.252 500.16 381.237 501.281C380.24 502.363 378.841 503.298 377.038 504.085C375.255 504.835 373.18 505.206 370.813 505.2C368.504 505.174 365.577 504.66 362.034 503.659C358.547 502.638 354.633 501.078 350.291 498.98ZM373.723 520.822L377.677 512.639L426.371 536.167L422.417 544.35L373.723 520.822ZM450.449 493.497L468.774 502.351L481.89 538.755L493.668 514.379L509.918 522.231L489.203 565.105L472.837 557.197L458.541 518.233L445.983 544.222L429.733 536.37L450.449 493.497ZM515.446 524.902L561.95 547.372L556.883 557.86L526.572 543.214L523.982 548.574L553.659 562.913L548.564 573.459L518.887 559.119L510.924 575.6L494.731 567.776L515.446 524.902ZM563.17 600.845L578.233 569.669L559.735 560.731L565.388 549.033L618.749 574.817L613.097 586.515L594.599 577.577L579.535 608.752L563.17 600.845Z" fill="#1E1E1E"/>
<path opacity="0.2" d="M701.599 350.763L722.315 307.889L744.789 318.749L746.289 349.185L771.297 331.557L792.849 341.97L772.133 384.844L755.94 377.02L768.86 350.281L740.9 369.752L732.544 365.715L730.481 331.737L717.561 358.476L701.599 350.763ZM828.639 358.268L831.232 359.521C835.035 361.359 838.363 363.299 841.215 365.34C844.124 367.361 846.43 369.305 848.135 371.171C849.896 373.018 851.268 374.936 852.249 376.926C853.287 378.897 853.97 380.72 854.298 382.395C854.626 384.069 854.706 385.767 854.539 387.486C854.41 389.225 854.134 390.726 853.712 391.992C853.329 393.275 852.822 394.57 852.191 395.877L851.355 397.605C850.724 398.911 850.025 400.114 849.257 401.212C848.528 402.328 847.514 403.497 846.213 404.717C844.97 405.916 843.581 406.928 842.047 407.75C840.569 408.552 838.727 409.178 836.519 409.628C834.311 410.078 831.947 410.215 829.426 410.039C826.904 409.863 823.948 409.264 820.556 408.241C817.185 407.276 813.578 405.865 809.736 404.008L807.143 402.755C803.302 400.899 799.936 398.941 797.045 396.881C794.175 394.878 791.868 392.934 790.125 391.05C788.42 389.183 787.058 387.246 786.039 385.237C785.019 383.228 784.346 381.386 784.018 379.711C783.747 378.016 783.676 376.3 783.805 374.562C783.991 372.804 784.276 371.283 784.659 369.999C785.081 368.734 785.607 367.448 786.238 366.142L787.074 364.413C787.705 363.107 788.385 361.895 789.114 360.779C789.881 359.681 790.887 358.532 792.13 357.332C793.412 356.15 794.791 355.158 796.269 354.356C797.785 353.572 799.637 352.974 801.826 352.563C804.034 352.113 806.389 351.996 808.892 352.21C811.451 352.404 814.408 353.003 817.761 354.008C821.171 354.992 824.797 356.412 828.639 358.268ZM834.664 388.901L835.054 388.094C835.666 386.826 836.002 385.543 836.061 384.245C836.138 382.908 835.87 381.451 835.257 379.876C834.683 378.319 833.468 376.713 831.614 375.059C829.76 373.405 827.334 371.854 824.338 370.406C821.264 368.921 818.503 367.966 816.055 367.541C813.607 367.116 811.594 367.163 810.017 367.68C808.44 368.198 807.152 368.902 806.153 369.794C805.211 370.665 804.433 371.735 803.821 373.002L803.486 373.694C802.874 374.962 802.52 376.283 802.424 377.659C802.347 378.995 802.577 380.481 803.114 382.115C803.67 383.71 804.866 385.354 806.702 387.047C808.576 388.758 811.011 390.337 814.008 391.785C817.004 393.233 819.727 394.169 822.175 394.594C824.68 394.999 826.731 394.924 828.326 394.368C829.922 393.812 831.219 393.088 832.218 392.197C833.236 391.267 834.051 390.168 834.664 388.901ZM866.154 377.39L884.479 386.245L897.595 422.649L909.373 398.273L925.624 406.125L904.908 448.999L888.542 441.091L874.246 402.126L861.689 428.116L845.438 420.264L866.154 377.39ZM938.859 466.398L937.534 465.758C933.039 463.586 929.266 461.195 926.216 458.583C923.184 455.934 920.974 453.397 919.586 450.973C918.217 448.511 917.334 445.975 916.936 443.366C916.556 440.719 916.562 438.353 916.954 436.267C917.403 434.162 918.1 432.13 919.047 430.171L919.827 428.557C920.81 426.521 921.969 424.711 923.302 423.129C924.654 421.507 926.467 420.061 928.74 418.79C931.069 417.499 933.644 416.682 936.464 416.338C939.34 415.975 942.836 416.242 946.951 417.141C951.123 418.019 955.629 419.628 960.47 421.967L962.717 423.053C967.711 425.466 971.896 427.985 975.271 430.611C978.703 433.217 981.159 435.589 982.638 437.725C984.174 439.841 985.186 442.013 985.674 444.239C986.22 446.445 986.369 448.294 986.122 449.786C985.893 451.239 985.455 452.686 984.807 454.126L984.779 454.183L967.721 445.942C967.812 445.559 967.835 445.167 967.791 444.767C967.805 444.347 967.643 443.7 967.307 442.827C966.971 441.954 966.435 441.103 965.698 440.273C965.019 439.423 963.87 438.418 962.251 437.257C960.651 436.057 958.718 434.91 956.451 433.815C946.578 429.044 939.933 430.193 936.518 437.262L936.212 437.896C934.745 440.931 934.712 444.089 936.111 447.372C937.529 450.616 940.716 453.435 945.672 455.829C947.784 456.85 949.77 457.644 951.629 458.21C953.506 458.738 955.066 459.042 956.307 459.12C957.587 459.217 958.713 459.193 959.684 459.046C960.693 458.918 961.435 458.707 961.908 458.415C962.419 458.141 962.749 457.85 962.898 457.543L947.858 450.275L951.895 441.92L983.647 457.262L971.98 481.407L961.665 476.423C962.299 473.933 962.583 471.63 962.516 469.513C956.272 472.04 948.386 471.002 938.859 466.398ZM1006.29 498.98L1001.05 496.447C983.606 488.019 977.336 478.735 982.236 468.592L982.515 468.016L1000.49 476.703C998.852 480.886 1001.45 484.629 1008.29 487.933L1008.81 488.184C1011 489.242 1012.87 490.027 1014.42 490.541C1015.99 491.016 1017.22 491.228 1018.09 491.178C1018.99 491.089 1019.65 490.89 1020.09 490.578C1020.58 490.247 1020.97 489.794 1021.24 489.217L1021.27 489.16C1021.66 488.353 1021.76 487.617 1021.56 486.952C1021.41 486.267 1020.66 485.38 1019.29 484.292C1017.98 483.184 1015.9 481.895 1013.05 480.426L1005.21 476.353C991.375 469.194 986.443 461.503 990.416 453.282L990.666 452.763C991.39 451.265 992.251 450.023 993.249 449.036C994.266 448.011 995.61 447.191 997.281 446.577C998.952 445.963 1000.88 445.708 1003.05 445.812C1005.23 445.916 1007.89 446.443 1011.03 447.393C1014.23 448.322 1017.77 449.725 1021.65 451.6L1026.78 454.078C1044.14 462.468 1050.65 471.177 1046.28 480.205L1046.06 480.666L1028.25 472.062C1029.37 468.86 1026.65 465.672 1020.08 462.498L1019.5 462.22C1016.82 460.92 1014.66 460.091 1013.03 459.731C1011.42 459.333 1010.34 459.262 1009.79 459.517C1009.26 459.735 1008.84 460.17 1008.52 460.823L1008.49 460.88C1008.18 461.533 1008.11 462.164 1008.29 462.772C1008.51 463.399 1009.25 464.229 1010.5 465.261C1011.77 466.255 1013.69 467.394 1016.24 468.676L1023.88 472.58C1031.88 476.727 1037.13 480.663 1039.64 484.388C1042.17 488.075 1042.39 492.089 1040.29 496.43L1039.9 497.237C1039.14 498.812 1038.25 500.16 1037.24 501.281C1036.24 502.363 1034.84 503.298 1033.04 504.085C1031.25 504.835 1029.18 505.206 1026.81 505.2C1024.5 505.174 1021.58 504.66 1018.03 503.659C1014.55 502.638 1010.63 501.078 1006.29 498.98ZM1029.72 520.822L1033.68 512.639L1082.37 536.167L1078.42 544.35L1029.72 520.822ZM1106.45 493.497L1124.77 502.351L1137.89 538.755L1149.67 514.379L1165.92 522.231L1145.2 565.105L1128.84 557.197L1114.54 518.233L1101.98 544.222L1085.73 536.37L1106.45 493.497ZM1171.45 524.902L1217.95 547.372L1212.88 557.86L1182.57 543.214L1179.98 548.574L1209.66 562.913L1204.56 573.459L1174.89 559.119L1166.92 575.6L1150.73 567.776L1171.45 524.902ZM1219.17 600.845L1234.23 569.669L1215.74 560.731L1221.39 549.033L1274.75 574.817L1269.1 586.515L1250.6 577.577L1235.54 608.752L1219.17 600.845Z" fill="#1E1E1E"/>
<path opacity="0.2" d="M1357.6 350.763L1378.31 307.889L1400.79 318.749L1402.29 349.185L1427.3 331.557L1448.85 341.97L1428.13 384.844L1411.94 377.02L1424.86 350.281L1396.9 369.752L1388.54 365.715L1386.48 331.737L1373.56 358.476L1357.6 350.763ZM1484.64 358.268L1487.23 359.521C1491.04 361.359 1494.36 363.299 1497.21 365.34C1500.12 367.361 1502.43 369.305 1504.13 371.171C1505.9 373.018 1507.27 374.936 1508.25 376.926C1509.29 378.897 1509.97 380.72 1510.3 382.395C1510.63 384.069 1510.71 385.767 1510.54 387.486C1510.41 389.225 1510.13 390.726 1509.71 391.992C1509.33 393.275 1508.82 394.57 1508.19 395.877L1507.36 397.605C1506.72 398.911 1506.02 400.114 1505.26 401.212C1504.53 402.328 1503.51 403.497 1502.21 404.717C1500.97 405.916 1499.58 406.928 1498.05 407.75C1496.57 408.552 1494.73 409.178 1492.52 409.628C1490.31 410.078 1487.95 410.215 1485.43 410.039C1482.9 409.863 1479.95 409.264 1476.56 408.241C1473.18 407.276 1469.58 405.865 1465.74 404.008L1463.14 402.755C1459.3 400.899 1455.94 398.941 1453.05 396.881C1450.17 394.878 1447.87 392.934 1446.13 391.05C1444.42 389.183 1443.06 387.246 1442.04 385.237C1441.02 383.228 1440.35 381.386 1440.02 379.711C1439.75 378.016 1439.68 376.3 1439.8 374.562C1439.99 372.804 1440.28 371.283 1440.66 369.999C1441.08 368.734 1441.61 367.448 1442.24 366.142L1443.07 364.413C1443.7 363.107 1444.38 361.895 1445.11 360.779C1445.88 359.681 1446.89 358.532 1448.13 357.332C1449.41 356.15 1450.79 355.158 1452.27 354.356C1453.78 353.572 1455.64 352.974 1457.83 352.563C1460.03 352.113 1462.39 351.996 1464.89 352.21C1467.45 352.404 1470.41 353.003 1473.76 354.008C1477.17 354.992 1480.8 356.412 1484.64 358.268ZM1490.66 388.901L1491.05 388.094C1491.67 386.826 1492 385.543 1492.06 384.245C1492.14 382.908 1491.87 381.451 1491.26 379.876C1490.68 378.319 1489.47 376.713 1487.61 375.059C1485.76 373.405 1483.33 371.854 1480.34 370.406C1477.26 368.921 1474.5 367.966 1472.06 367.541C1469.61 367.116 1467.59 367.163 1466.02 367.68C1464.44 368.198 1463.15 368.902 1462.15 369.794C1461.21 370.665 1460.43 371.735 1459.82 373.002L1459.49 373.694C1458.87 374.962 1458.52 376.283 1458.42 377.659C1458.35 378.995 1458.58 380.481 1459.11 382.115C1459.67 383.71 1460.87 385.354 1462.7 387.047C1464.58 388.758 1467.01 390.337 1470.01 391.785C1473 393.233 1475.73 394.169 1478.17 394.594C1480.68 394.999 1482.73 394.924 1484.33 394.368C1485.92 393.812 1487.22 393.088 1488.22 392.197C1489.24 391.267 1490.05 390.168 1490.66 388.901ZM1522.15 377.39L1540.48 386.245L1553.6 422.649L1565.37 398.273L1581.62 406.125L1560.91 448.999L1544.54 441.091L1530.25 402.126L1517.69 428.116L1501.44 420.264L1522.15 377.39ZM1594.86 466.398L1593.53 465.758C1589.04 463.586 1585.27 461.195 1582.22 458.583C1579.18 455.934 1576.97 453.397 1575.59 450.973C1574.22 448.511 1573.33 445.975 1572.94 443.366C1572.56 440.719 1572.56 438.353 1572.95 436.267C1573.4 434.162 1574.1 432.13 1575.05 430.171L1575.83 428.557C1576.81 426.521 1577.97 424.711 1579.3 423.129C1580.65 421.507 1582.47 420.061 1584.74 418.79C1587.07 417.499 1589.64 416.682 1592.46 416.338C1595.34 415.975 1598.84 416.242 1602.95 417.141C1607.12 418.019 1611.63 419.628 1616.47 421.967L1618.72 423.053C1623.71 425.466 1627.9 427.985 1631.27 430.611C1634.7 433.217 1637.16 435.589 1638.64 437.725C1640.17 439.841 1641.19 442.013 1641.67 444.239C1642.22 446.445 1642.37 448.294 1642.12 449.786C1641.89 451.239 1641.45 452.686 1640.81 454.126L1640.78 454.183L1623.72 445.942C1623.81 445.559 1623.84 445.167 1623.79 444.767C1623.8 444.347 1623.64 443.7 1623.31 442.827C1622.97 441.954 1622.43 441.103 1621.7 440.273C1621.02 439.423 1619.87 438.418 1618.25 437.257C1616.65 436.057 1614.72 434.91 1612.45 433.815C1602.58 429.044 1595.93 430.193 1592.52 437.262L1592.21 437.896C1590.75 440.931 1590.71 444.089 1592.11 447.372C1593.53 450.616 1596.72 453.435 1601.67 455.829C1603.78 456.85 1605.77 457.644 1607.63 458.21C1609.51 458.738 1611.07 459.042 1612.31 459.12C1613.59 459.217 1614.71 459.193 1615.68 459.046C1616.69 458.918 1617.43 458.707 1617.91 458.415C1618.42 458.141 1618.75 457.85 1618.9 457.543L1603.86 450.275L1607.89 441.92L1639.65 457.262L1627.98 481.407L1617.67 476.423C1618.3 473.933 1618.58 471.63 1618.52 469.513C1612.27 472.04 1604.39 471.002 1594.86 466.398ZM1662.29 498.98L1657.05 496.447C1639.61 488.019 1633.34 478.735 1638.24 468.592L1638.51 468.016L1656.49 476.703C1654.85 480.886 1657.45 484.629 1664.29 487.933L1664.81 488.184C1667 489.242 1668.87 490.027 1670.42 490.541C1671.99 491.016 1673.22 491.228 1674.09 491.178C1674.99 491.089 1675.65 490.89 1676.09 490.578C1676.58 490.247 1676.97 489.794 1677.24 489.217L1677.27 489.16C1677.66 488.353 1677.76 487.617 1677.56 486.952C1677.41 486.267 1676.66 485.38 1675.29 484.292C1673.98 483.184 1671.9 481.895 1669.05 480.426L1661.21 476.353C1647.38 469.194 1642.44 461.503 1646.42 453.282L1646.67 452.763C1647.39 451.265 1648.25 450.023 1649.25 449.036C1650.27 448.011 1651.61 447.191 1653.28 446.577C1654.95 445.963 1656.88 445.708 1659.05 445.812C1661.23 445.916 1663.89 446.443 1667.03 447.393C1670.23 448.322 1673.77 449.725 1677.65 451.6L1682.78 454.078C1700.14 462.468 1706.65 471.177 1702.28 480.205L1702.06 480.666L1684.25 472.062C1685.37 468.86 1682.65 465.672 1676.08 462.498L1675.5 462.22C1672.82 460.92 1670.66 460.091 1669.03 459.731C1667.42 459.333 1666.34 459.262 1665.79 459.517C1665.26 459.735 1664.84 460.17 1664.52 460.823L1664.49 460.88C1664.18 461.533 1664.11 462.164 1664.29 462.772C1664.51 463.399 1665.25 464.229 1666.5 465.261C1667.77 466.255 1669.69 467.394 1672.24 468.676L1679.88 472.58C1687.88 476.727 1693.13 480.663 1695.64 484.388C1698.17 488.075 1698.39 492.089 1696.29 496.43L1695.9 497.237C1695.14 498.812 1694.25 500.16 1693.24 501.281C1692.24 502.363 1690.84 503.298 1689.04 504.085C1687.25 504.835 1685.18 505.206 1682.81 505.2C1680.5 505.174 1677.58 504.66 1674.03 503.659C1670.55 502.638 1666.63 501.078 1662.29 498.98ZM1685.72 520.822L1689.68 512.639L1738.37 536.167L1734.42 544.35L1685.72 520.822ZM1762.45 493.497L1780.77 502.351L1793.89 538.755L1805.67 514.379L1821.92 522.231L1801.2 565.105L1784.84 557.197L1770.54 518.233L1757.98 544.222L1741.73 536.37L1762.45 493.497ZM1827.45 524.902L1873.95 547.372L1868.88 557.86L1838.57 543.214L1835.98 548.574L1865.66 562.913L1860.56 573.459L1830.89 559.119L1822.92 575.6L1806.73 567.776L1827.45 524.902ZM1875.17 600.845L1890.23 569.669L1871.74 560.731L1877.39 549.033L1930.75 574.817L1925.1 586.515L1906.6 577.577L1891.54 608.752L1875.17 600.845Z" fill="#1E1E1E"/>
<path opacity="0.2" d="M45.599 553.763L66.3148 510.889L88.7888 521.749L90.2888 552.185L115.297 534.557L136.849 544.97L116.133 587.844L99.9401 580.02L112.86 553.281L84.8997 572.752L76.544 568.715L74.4808 534.737L61.5613 561.476L45.599 553.763ZM172.639 561.268L175.232 562.521C179.035 564.359 182.363 566.299 185.215 568.34C188.124 570.361 190.43 572.305 192.135 574.171C193.896 576.018 195.268 577.936 196.249 579.926C197.287 581.897 197.97 583.72 198.298 585.395C198.626 587.069 198.706 588.767 198.539 590.486C198.41 592.225 198.134 593.726 197.712 594.992C197.329 596.275 196.822 597.57 196.191 598.877L195.355 600.605C194.724 601.911 194.025 603.114 193.257 604.212C192.528 605.328 191.514 606.497 190.213 607.717C188.97 608.916 187.581 609.928 186.047 610.75C184.569 611.552 182.727 612.178 180.519 612.628C178.311 613.078 175.947 613.215 173.426 613.039C170.904 612.863 167.948 612.264 164.556 611.241C161.185 610.276 157.578 608.865 153.736 607.008L151.143 605.755C147.302 603.899 143.936 601.941 141.045 599.881C138.175 597.878 135.868 595.934 134.125 594.05C132.42 592.183 131.058 590.246 130.039 588.237C129.019 586.228 128.346 584.386 128.018 582.711C127.747 581.016 127.676 579.3 127.805 577.562C127.991 575.804 128.276 574.283 128.659 572.999C129.081 571.734 129.607 570.448 130.238 569.142L131.074 567.413C131.705 566.107 132.385 564.895 133.114 563.779C133.881 562.681 134.887 561.532 136.13 560.332C137.412 559.15 138.791 558.158 140.269 557.356C141.785 556.572 143.637 555.974 145.826 555.563C148.034 555.113 150.389 554.996 152.892 555.21C155.451 555.404 158.408 556.003 161.761 557.008C165.171 557.992 168.797 559.412 172.639 561.268ZM178.664 591.901L179.054 591.094C179.666 589.826 180.002 588.543 180.061 587.245C180.138 585.908 179.87 584.451 179.257 582.876C178.683 581.319 177.468 579.713 175.614 578.059C173.76 576.405 171.334 574.854 168.338 573.406C165.264 571.921 162.503 570.966 160.055 570.541C157.607 570.116 155.594 570.163 154.017 570.68C152.44 571.198 151.152 571.902 150.153 572.794C149.211 573.665 148.433 574.735 147.821 576.002L147.486 576.694C146.874 577.962 146.52 579.283 146.424 580.659C146.347 581.995 146.577 583.481 147.114 585.115C147.67 586.71 148.866 588.354 150.702 590.047C152.576 591.758 155.011 593.337 158.008 594.785C161.004 596.233 163.727 597.169 166.175 597.594C168.68 597.999 170.731 597.924 172.326 597.368C173.922 596.812 175.219 596.088 176.218 595.197C177.236 594.267 178.051 593.168 178.664 591.901ZM210.154 580.39L228.479 589.245L241.595 625.649L253.373 601.273L269.624 609.125L248.908 651.999L232.542 644.091L218.246 605.126L205.689 631.116L189.438 623.264L210.154 580.39ZM282.859 669.398L281.534 668.758C277.039 666.586 273.266 664.195 270.216 661.583C267.184 658.934 264.974 656.397 263.586 653.973C262.217 651.511 261.334 648.975 260.936 646.366C260.556 643.719 260.562 641.353 260.954 639.267C261.403 637.162 262.1 635.13 263.047 633.171L263.827 631.557C264.81 629.521 265.969 627.711 267.302 626.129C268.654 624.507 270.467 623.061 272.74 621.79C275.069 620.499 277.644 619.682 280.464 619.338C283.34 618.975 286.836 619.242 290.951 620.141C295.123 621.019 299.629 622.628 304.47 624.967L306.717 626.053C311.711 628.466 315.896 630.985 319.271 633.611C322.703 636.217 325.159 638.589 326.638 640.725C328.174 642.841 329.186 645.013 329.674 647.239C330.22 649.445 330.369 651.294 330.122 652.786C329.893 654.239 329.455 655.686 328.807 657.126L328.779 657.183L311.721 648.942C311.812 648.559 311.835 648.167 311.791 647.767C311.805 647.347 311.643 646.7 311.307 645.827C310.971 644.954 310.435 644.103 309.698 643.273C309.019 642.423 307.87 641.418 306.251 640.257C304.651 639.057 302.718 637.91 300.451 636.815C290.578 632.044 283.933 633.193 280.518 640.262L280.212 640.896C278.745 643.931 278.712 647.089 280.111 650.372C281.529 653.616 284.716 656.435 289.672 658.829C291.784 659.85 293.77 660.644 295.629 661.21C297.506 661.738 299.066 662.042 300.307 662.12C301.587 662.217 302.713 662.193 303.684 662.046C304.693 661.918 305.435 661.707 305.908 661.415C306.419 661.141 306.749 660.85 306.898 660.543L291.858 653.275L295.895 644.92L327.647 660.262L315.98 684.407L305.665 679.423C306.299 676.933 306.583 674.63 306.516 672.513C300.272 675.04 292.386 674.002 282.859 669.398ZM350.291 701.98L345.047 699.447C327.606 691.019 321.336 681.735 326.236 671.592L326.515 671.016L344.494 679.703C342.852 683.886 345.45 687.629 352.289 690.933L352.807 691.184C354.997 692.242 356.868 693.027 358.421 693.541C359.992 694.016 361.216 694.228 362.093 694.178C362.989 694.089 363.654 693.89 364.089 693.578C364.581 693.247 364.966 692.794 365.244 692.217L365.272 692.16C365.662 691.353 365.757 690.617 365.557 689.952C365.414 689.267 364.658 688.38 363.288 687.292C361.976 686.184 359.897 684.895 357.053 683.426L349.212 679.353C335.375 672.194 330.443 664.503 334.416 656.282L334.666 655.763C335.39 654.265 336.251 653.023 337.249 652.036C338.266 651.011 339.61 650.191 341.281 649.577C342.952 648.963 344.876 648.708 347.052 648.812C349.229 648.916 351.889 649.443 355.031 650.393C358.231 651.322 361.771 652.725 365.651 654.6L370.779 657.078C388.144 665.468 394.645 674.177 390.283 683.205L390.06 683.666L372.254 675.062C373.374 671.86 370.65 668.672 364.081 665.498L363.505 665.22C360.815 663.92 358.657 663.091 357.03 662.731C355.422 662.333 354.343 662.262 353.793 662.517C353.262 662.735 352.838 663.17 352.523 663.823L352.495 663.88C352.179 664.533 352.111 665.164 352.291 665.772C352.51 666.399 353.246 667.229 354.5 668.261C355.773 669.255 357.688 670.394 360.243 671.676L367.881 675.58C375.876 679.727 381.129 683.663 383.641 687.388C386.172 691.075 386.389 695.089 384.291 699.43L383.901 700.237C383.14 701.812 382.252 703.16 381.237 704.281C380.24 705.363 378.841 706.298 377.038 707.085C375.255 707.835 373.18 708.206 370.813 708.2C368.504 708.174 365.577 707.66 362.034 706.659C358.547 705.638 354.633 704.078 350.291 701.98ZM373.723 723.822L377.677 715.639L426.371 739.167L422.417 747.35L373.723 723.822ZM450.449 696.497L468.774 705.351L481.89 741.755L493.668 717.379L509.918 725.231L489.203 768.105L472.837 760.197L458.541 721.233L445.983 747.222L429.733 739.37L450.449 696.497ZM515.446 727.902L561.95 750.372L556.883 760.86L526.572 746.214L523.982 751.574L553.659 765.913L548.564 776.459L518.887 762.119L510.924 778.6L494.731 770.776L515.446 727.902ZM563.17 803.845L578.233 772.669L559.735 763.731L565.388 752.033L618.749 777.817L613.097 789.515L594.599 780.577L579.535 811.752L563.17 803.845Z" fill="#1E1E1E"/>
<path opacity="0.2" d="M701.599 553.763L722.315 510.889L744.789 521.749L746.289 552.185L771.297 534.557L792.849 544.97L772.133 587.844L755.94 580.02L768.86 553.281L740.9 572.752L732.544 568.715L730.481 534.737L717.561 561.476L701.599 553.763ZM828.639 561.268L831.232 562.521C835.035 564.359 838.363 566.299 841.215 568.34C844.124 570.361 846.43 572.305 848.135 574.171C849.896 576.018 851.268 577.936 852.249 579.926C853.287 581.897 853.97 583.72 854.298 585.395C854.626 587.069 854.706 588.767 854.539 590.486C854.41 592.225 854.134 593.726 853.712 594.992C853.329 596.275 852.822 597.57 852.191 598.877L851.355 600.605C850.724 601.911 850.025 603.114 849.257 604.212C848.528 605.328 847.514 606.497 846.213 607.717C844.97 608.916 843.581 609.928 842.047 610.75C840.569 611.552 838.727 612.178 836.519 612.628C834.311 613.078 831.947 613.215 829.426 613.039C826.904 612.863 823.948 612.264 820.556 611.241C817.185 610.276 813.578 608.865 809.736 607.008L807.143 605.755C803.302 603.899 799.936 601.941 797.045 599.881C794.175 597.878 791.868 595.934 790.125 594.05C788.42 592.183 787.058 590.246 786.039 588.237C785.019 586.228 784.346 584.386 784.018 582.711C783.747 581.016 783.676 579.3 783.805 577.562C783.991 575.804 784.276 574.283 784.659 572.999C785.081 571.734 785.607 570.448 786.238 569.142L787.074 567.413C787.705 566.107 788.385 564.895 789.114 563.779C789.881 562.681 790.887 561.532 792.13 560.332C793.412 559.15 794.791 558.158 796.269 557.356C797.785 556.572 799.637 555.974 801.826 555.563C804.034 555.113 806.389 554.996 808.892 555.21C811.451 555.404 814.408 556.003 817.761 557.008C821.171 557.992 824.797 559.412 828.639 561.268ZM834.664 591.901L835.054 591.094C835.666 589.826 836.002 588.543 836.061 587.245C836.138 585.908 835.87 584.451 835.257 582.876C834.683 581.319 833.468 579.713 831.614 578.059C829.76 576.405 827.334 574.854 824.338 573.406C821.264 571.921 818.503 570.966 816.055 570.541C813.607 570.116 811.594 570.163 810.017 570.68C808.44 571.198 807.152 571.902 806.153 572.794C805.211 573.665 804.433 574.735 803.821 576.002L803.486 576.694C802.874 577.962 802.52 579.283 802.424 580.659C802.347 581.995 802.577 583.481 803.114 585.115C803.67 586.71 804.866 588.354 806.702 590.047C808.576 591.758 811.011 593.337 814.008 594.785C817.004 596.233 819.727 597.169 822.175 597.594C824.68 597.999 826.731 597.924 828.326 597.368C829.922 596.812 831.219 596.088 832.218 595.197C833.236 594.267 834.051 593.168 834.664 591.901ZM866.154 580.39L884.479 589.245L897.595 625.649L909.373 601.273L925.624 609.125L904.908 651.999L888.542 644.091L874.246 605.126L861.689 631.116L845.438 623.264L866.154 580.39ZM938.859 669.398L937.534 668.758C933.039 666.586 929.266 664.195 926.216 661.583C923.184 658.934 920.974 656.397 919.586 653.973C918.217 651.511 917.334 648.975 916.936 646.366C916.556 643.719 916.562 641.353 916.954 639.267C917.403 637.162 918.1 635.13 919.047 633.171L919.827 631.557C920.81 629.521 921.969 627.711 923.302 626.129C924.654 624.507 926.467 623.061 928.74 621.79C931.069 620.499 933.644 619.682 936.464 619.338C939.34 618.975 942.836 619.242 946.951 620.141C951.123 621.019 955.629 622.628 960.47 624.967L962.717 626.053C967.711 628.466 971.896 630.985 975.271 633.611C978.703 636.217 981.159 638.589 982.638 640.725C984.174 642.841 985.186 645.013 985.674 647.239C986.22 649.445 986.369 651.294 986.122 652.786C985.893 654.239 985.455 655.686 984.807 657.126L984.779 657.183L967.721 648.942C967.812 648.559 967.835 648.167 967.791 647.767C967.805 647.347 967.643 646.7 967.307 645.827C966.971 644.954 966.435 644.103 965.698 643.273C965.019 642.423 963.87 641.418 962.251 640.257C960.651 639.057 958.718 637.91 956.451 636.815C946.578 632.044 939.933 633.193 936.518 640.262L936.212 640.896C934.745 643.931 934.712 647.089 936.111 650.372C937.529 653.616 940.716 656.435 945.672 658.829C947.784 659.85 949.77 660.644 951.629 661.21C953.506 661.738 955.066 662.042 956.307 662.12C957.587 662.217 958.713 662.193 959.684 662.046C960.693 661.918 961.435 661.707 961.908 661.415C962.419 661.141 962.749 660.85 962.898 660.543L947.858 653.275L951.895 644.92L983.647 660.262L971.98 684.407L961.665 679.423C962.299 676.933 962.583 674.63 962.516 672.513C956.272 675.04 948.386 674.002 938.859 669.398ZM1006.29 701.98L1001.05 699.447C983.606 691.019 977.336 681.735 982.236 671.592L982.515 671.016L1000.49 679.703C998.852 683.886 1001.45 687.629 1008.29 690.933L1008.81 691.184C1011 692.242 1012.87 693.027 1014.42 693.541C1015.99 694.016 1017.22 694.228 1018.09 694.178C1018.99 694.089 1019.65 693.89 1020.09 693.578C1020.58 693.247 1020.97 692.794 1021.24 692.217L1021.27 692.16C1021.66 691.353 1021.76 690.617 1021.56 689.952C1021.41 689.267 1020.66 688.38 1019.29 687.292C1017.98 686.184 1015.9 684.895 1013.05 683.426L1005.21 679.353C991.375 672.194 986.443 664.503 990.416 656.282L990.666 655.763C991.39 654.265 992.251 653.023 993.249 652.036C994.266 651.011 995.61 650.191 997.281 649.577C998.952 648.963 1000.88 648.708 1003.05 648.812C1005.23 648.916 1007.89 649.443 1011.03 650.393C1014.23 651.322 1017.77 652.725 1021.65 654.6L1026.78 657.078C1044.14 665.468 1050.65 674.177 1046.28 683.205L1046.06 683.666L1028.25 675.062C1029.37 671.86 1026.65 668.672 1020.08 665.498L1019.5 665.22C1016.82 663.92 1014.66 663.091 1013.03 662.731C1011.42 662.333 1010.34 662.262 1009.79 662.517C1009.26 662.735 1008.84 663.17 1008.52 663.823L1008.49 663.88C1008.18 664.533 1008.11 665.164 1008.29 665.772C1008.51 666.399 1009.25 667.229 1010.5 668.261C1011.77 669.255 1013.69 670.394 1016.24 671.676L1023.88 675.58C1031.88 679.727 1037.13 683.663 1039.64 687.388C1042.17 691.075 1042.39 695.089 1040.29 699.43L1039.9 700.237C1039.14 701.812 1038.25 703.16 1037.24 704.281C1036.24 705.363 1034.84 706.298 1033.04 707.085C1031.25 707.835 1029.18 708.206 1026.81 708.2C1024.5 708.174 1021.58 707.66 1018.03 706.659C1014.55 705.638 1010.63 704.078 1006.29 701.98ZM1029.72 723.822L1033.68 715.639L1082.37 739.167L1078.42 747.35L1029.72 723.822ZM1106.45 696.497L1124.77 705.351L1137.89 741.755L1149.67 717.379L1165.92 725.231L1145.2 768.105L1128.84 760.197L1114.54 721.233L1101.98 747.222L1085.73 739.37L1106.45 696.497ZM1171.45 727.902L1217.95 750.372L1212.88 760.86L1182.57 746.214L1179.98 751.574L1209.66 765.913L1204.56 776.459L1174.89 762.119L1166.92 778.6L1150.73 770.776L1171.45 727.902ZM1219.17 803.845L1234.23 772.669L1215.74 763.731L1221.39 752.033L1274.75 777.817L1269.1 789.515L1250.6 780.577L1235.54 811.752L1219.17 803.845Z" fill="#1E1E1E"/>
<path opacity="0.2" d="M1357.6 553.763L1378.31 510.889L1400.79 521.749L1402.29 552.185L1427.3 534.557L1448.85 544.97L1428.13 587.844L1411.94 580.02L1424.86 553.281L1396.9 572.752L1388.54 568.715L1386.48 534.737L1373.56 561.476L1357.6 553.763ZM1484.64 561.268L1487.23 562.521C1491.04 564.359 1494.36 566.299 1497.21 568.34C1500.12 570.361 1502.43 572.305 1504.13 574.171C1505.9 576.018 1507.27 577.936 1508.25 579.926C1509.29 581.897 1509.97 583.72 1510.3 585.395C1510.63 587.069 1510.71 588.767 1510.54 590.486C1510.41 592.225 1510.13 593.726 1509.71 594.992C1509.33 596.275 1508.82 597.57 1508.19 598.877L1507.36 600.605C1506.72 601.911 1506.02 603.114 1505.26 604.212C1504.53 605.328 1503.51 606.497 1502.21 607.717C1500.97 608.916 1499.58 609.928 1498.05 610.75C1496.57 611.552 1494.73 612.178 1492.52 612.628C1490.31 613.078 1487.95 613.215 1485.43 613.039C1482.9 612.863 1479.95 612.264 1476.56 611.241C1473.18 610.276 1469.58 608.865 1465.74 607.008L1463.14 605.755C1459.3 603.899 1455.94 601.941 1453.05 599.881C1450.17 597.878 1447.87 595.934 1446.13 594.05C1444.42 592.183 1443.06 590.246 1442.04 588.237C1441.02 586.228 1440.35 584.386 1440.02 582.711C1439.75 581.016 1439.68 579.3 1439.8 577.562C1439.99 575.804 1440.28 574.283 1440.66 572.999C1441.08 571.734 1441.61 570.448 1442.24 569.142L1443.07 567.413C1443.7 566.107 1444.38 564.895 1445.11 563.779C1445.88 562.681 1446.89 561.532 1448.13 560.332C1449.41 559.15 1450.79 558.158 1452.27 557.356C1453.78 556.572 1455.64 555.974 1457.83 555.563C1460.03 555.113 1462.39 554.996 1464.89 555.21C1467.45 555.404 1470.41 556.003 1473.76 557.008C1477.17 557.992 1480.8 559.412 1484.64 561.268ZM1490.66 591.901L1491.05 591.094C1491.67 589.826 1492 588.543 1492.06 587.245C1492.14 585.908 1491.87 584.451 1491.26 582.876C1490.68 581.319 1489.47 579.713 1487.61 578.059C1485.76 576.405 1483.33 574.854 1480.34 573.406C1477.26 571.921 1474.5 570.966 1472.06 570.541C1469.61 570.116 1467.59 570.163 1466.02 570.68C1464.44 571.198 1463.15 571.902 1462.15 572.794C1461.21 573.665 1460.43 574.735 1459.82 576.002L1459.49 576.694C1458.87 577.962 1458.52 579.283 1458.42 580.659C1458.35 581.995 1458.58 583.481 1459.11 585.115C1459.67 586.71 1460.87 588.354 1462.7 590.047C1464.58 591.758 1467.01 593.337 1470.01 594.785C1473 596.233 1475.73 597.169 1478.17 597.594C1480.68 597.999 1482.73 597.924 1484.33 597.368C1485.92 596.812 1487.22 596.088 1488.22 595.197C1489.24 594.267 1490.05 593.168 1490.66 591.901ZM1522.15 580.39L1540.48 589.245L1553.6 625.649L1565.37 601.273L1581.62 609.125L1560.91 651.999L1544.54 644.091L1530.25 605.126L1517.69 631.116L1501.44 623.264L1522.15 580.39ZM1594.86 669.398L1593.53 668.758C1589.04 666.586 1585.27 664.195 1582.22 661.583C1579.18 658.934 1576.97 656.397 1575.59 653.973C1574.22 651.511 1573.33 648.975 1572.94 646.366C1572.56 643.719 1572.56 641.353 1572.95 639.267C1573.4 637.162 1574.1 635.13 1575.05 633.171L1575.83 631.557C1576.81 629.521 1577.97 627.711 1579.3 626.129C1580.65 624.507 1582.47 623.061 1584.74 621.79C1587.07 620.499 1589.64 619.682 1592.46 619.338C1595.34 618.975 1598.84 619.242 1602.95 620.141C1607.12 621.019 1611.63 622.628 1616.47 624.967L1618.72 626.053C1623.71 628.466 1627.9 630.985 1631.27 633.611C1634.7 636.217 1637.16 638.589 1638.64 640.725C1640.17 642.841 1641.19 645.013 1641.67 647.239C1642.22 649.445 1642.37 651.294 1642.12 652.786C1641.89 654.239 1641.45 655.686 1640.81 657.126L1640.78 657.183L1623.72 648.942C1623.81 648.559 1623.84 648.167 1623.79 647.767C1623.8 647.347 1623.64 646.7 1623.31 645.827C1622.97 644.954 1622.43 644.103 1621.7 643.273C1621.02 642.423 1619.87 641.418 1618.25 640.257C1616.65 639.057 1614.72 637.91 1612.45 636.815C1602.58 632.044 1595.93 633.193 1592.52 640.262L1592.21 640.896C1590.75 643.931 1590.71 647.089 1592.11 650.372C1593.53 653.616 1596.72 656.435 1601.67 658.829C1603.78 659.85 1605.77 660.644 1607.63 661.21C1609.51 661.738 1611.07 662.042 1612.31 662.12C1613.59 662.217 1614.71 662.193 1615.68 662.046C1616.69 661.918 1617.43 661.707 1617.91 661.415C1618.42 661.141 1618.75 660.85 1618.9 660.543L1603.86 653.275L1607.89 644.92L1639.65 660.262L1627.98 684.407L1617.67 679.423C1618.3 676.933 1618.58 674.63 1618.52 672.513C1612.27 675.04 1604.39 674.002 1594.86 669.398ZM1662.29 701.98L1657.05 699.447C1639.61 691.019 1633.34 681.735 1638.24 671.592L1638.51 671.016L1656.49 679.703C1654.85 683.886 1657.45 687.629 1664.29 690.933L1664.81 691.184C1667 692.242 1668.87 693.027 1670.42 693.541C1671.99 694.016 1673.22 694.228 1674.09 694.178C1674.99 694.089 1675.65 693.89 1676.09 693.578C1676.58 693.247 1676.97 692.794 1677.24 692.217L1677.27 692.16C1677.66 691.353 1677.76 690.617 1677.56 689.952C1677.41 689.267 1676.66 688.38 1675.29 687.292C1673.98 686.184 1671.9 684.895 1669.05 683.426L1661.21 679.353C1647.38 672.194 1642.44 664.503 1646.42 656.282L1646.67 655.763C1647.39 654.265 1648.25 653.023 1649.25 652.036C1650.27 651.011 1651.61 650.191 1653.28 649.577C1654.95 648.963 1656.88 648.708 1659.05 648.812C1661.23 648.916 1663.89 649.443 1667.03 650.393C1670.23 651.322 1673.77 652.725 1677.65 654.6L1682.78 657.078C1700.14 665.468 1706.65 674.177 1702.28 683.205L1702.06 683.666L1684.25 675.062C1685.37 671.86 1682.65 668.672 1676.08 665.498L1675.5 665.22C1672.82 663.92 1670.66 663.091 1669.03 662.731C1667.42 662.333 1666.34 662.262 1665.79 662.517C1665.26 662.735 1664.84 663.17 1664.52 663.823L1664.49 663.88C1664.18 664.533 1664.11 665.164 1664.29 665.772C1664.51 666.399 1665.25 667.229 1666.5 668.261C1667.77 669.255 1669.69 670.394 1672.24 671.676L1679.88 675.58C1687.88 679.727 1693.13 683.663 1695.64 687.388C1698.17 691.075 1698.39 695.089 1696.29 699.43L1695.9 700.237C1695.14 701.812 1694.25 703.16 1693.24 704.281C1692.24 705.363 1690.84 706.298 1689.04 707.085C1687.25 707.835 1685.18 708.206 1682.81 708.2C1680.5 708.174 1677.58 707.66 1674.03 706.659C1670.55 705.638 1666.63 704.078 1662.29 701.98ZM1685.72 723.822L1689.68 715.639L1738.37 739.167L1734.42 747.35L1685.72 723.822ZM1762.45 696.497L1780.77 705.351L1793.89 741.755L1805.67 717.379L1821.92 725.231L1801.2 768.105L1784.84 760.197L1770.54 721.233L1757.98 747.222L1741.73 739.37L1762.45 696.497ZM1827.45 727.902L1873.95 750.372L1868.88 760.86L1838.57 746.214L1835.98 751.574L1865.66 765.913L1860.56 776.459L1830.89 762.119L1822.92 778.6L1806.73 770.776L1827.45 727.902ZM1875.17 803.845L1890.23 772.669L1871.74 763.731L1877.39 752.033L1930.75 777.817L1925.1 789.515L1906.6 780.577L1891.54 811.752L1875.17 803.845Z" fill="#1E1E1E"/>
<path opacity="0.2" d="M45.599 766.763L66.3148 723.889L88.7888 734.749L90.2888 765.185L115.297 747.557L136.849 757.97L116.133 800.844L99.9401 793.02L112.86 766.281L84.8997 785.752L76.544 781.715L74.4808 747.737L61.5613 774.476L45.599 766.763ZM172.639 774.268L175.232 775.521C179.035 777.359 182.363 779.299 185.215 781.34C188.124 783.361 190.43 785.305 192.135 787.171C193.896 789.018 195.268 790.936 196.249 792.926C197.287 794.897 197.97 796.72 198.298 798.395C198.626 800.069 198.706 801.767 198.539 803.486C198.41 805.225 198.134 806.726 197.712 807.992C197.329 809.275 196.822 810.57 196.191 811.877L195.355 813.605C194.724 814.911 194.025 816.114 193.257 817.212C192.528 818.328 191.514 819.497 190.213 820.717C188.97 821.916 187.581 822.928 186.047 823.75C184.569 824.552 182.727 825.178 180.519 825.628C178.311 826.078 175.947 826.215 173.426 826.039C170.904 825.863 167.948 825.264 164.556 824.241C161.185 823.276 157.578 821.865 153.736 820.008L151.143 818.755C147.302 816.899 143.936 814.941 141.045 812.881C138.175 810.878 135.868 808.934 134.125 807.05C132.42 805.183 131.058 803.246 130.039 801.237C129.019 799.228 128.346 797.386 128.018 795.711C127.747 794.016 127.676 792.3 127.805 790.562C127.991 788.804 128.276 787.283 128.659 785.999C129.081 784.734 129.607 783.448 130.238 782.142L131.074 780.413C131.705 779.107 132.385 777.895 133.114 776.779C133.881 775.681 134.887 774.532 136.13 773.332C137.412 772.15 138.791 771.158 140.269 770.356C141.785 769.572 143.637 768.974 145.826 768.563C148.034 768.113 150.389 767.996 152.892 768.21C155.451 768.404 158.408 769.003 161.761 770.008C165.171 770.992 168.797 772.412 172.639 774.268ZM178.664 804.901L179.054 804.094C179.666 802.826 180.002 801.543 180.061 800.245C180.138 798.908 179.87 797.451 179.257 795.876C178.683 794.319 177.468 792.713 175.614 791.059C173.76 789.405 171.334 787.854 168.338 786.406C165.264 784.921 162.503 783.966 160.055 783.541C157.607 783.116 155.594 783.163 154.017 783.68C152.44 784.198 151.152 784.902 150.153 785.794C149.211 786.665 148.433 787.735 147.821 789.002L147.486 789.694C146.874 790.962 146.52 792.283 146.424 793.659C146.347 794.995 146.577 796.481 147.114 798.115C147.67 799.71 148.866 801.354 150.702 803.047C152.576 804.758 155.011 806.337 158.008 807.785C161.004 809.233 163.727 810.169 166.175 810.594C168.68 810.999 170.731 810.924 172.326 810.368C173.922 809.812 175.219 809.088 176.218 808.197C177.236 807.267 178.051 806.168 178.664 804.901ZM210.154 793.39L228.479 802.245L241.595 838.649L253.373 814.273L269.624 822.125L248.908 864.999L232.542 857.091L218.246 818.126L205.689 844.116L189.438 836.264L210.154 793.39ZM282.859 882.398L281.534 881.758C277.039 879.586 273.266 877.195 270.216 874.583C267.184 871.934 264.974 869.397 263.586 866.973C262.217 864.511 261.334 861.975 260.936 859.366C260.556 856.719 260.562 854.353 260.954 852.267C261.403 850.162 262.1 848.13 263.047 846.171L263.827 844.557C264.81 842.521 265.969 840.711 267.302 839.129C268.654 837.507 270.467 836.061 272.74 834.79C275.069 833.499 277.644 832.682 280.464 832.338C283.34 831.975 286.836 832.242 290.951 833.141C295.123 834.019 299.629 835.628 304.47 837.967L306.717 839.053C311.711 841.466 315.896 843.985 319.271 846.611C322.703 849.217 325.159 851.589 326.638 853.725C328.174 855.841 329.186 858.013 329.674 860.239C330.22 862.445 330.369 864.294 330.122 865.786C329.893 867.239 329.455 868.686 328.807 870.126L328.779 870.183L311.721 861.942C311.812 861.559 311.835 861.167 311.791 860.767C311.805 860.347 311.643 859.7 311.307 858.827C310.971 857.954 310.435 857.103 309.698 856.273C309.019 855.423 307.87 854.418 306.251 853.257C304.651 852.057 302.718 850.91 300.451 849.815C290.578 845.044 283.933 846.193 280.518 853.262L280.212 853.896C278.745 856.931 278.712 860.089 280.111 863.372C281.529 866.616 284.716 869.435 289.672 871.829C291.784 872.85 293.77 873.644 295.629 874.21C297.506 874.738 299.066 875.042 300.307 875.12C301.587 875.217 302.713 875.193 303.684 875.046C304.693 874.918 305.435 874.707 305.908 874.415C306.419 874.141 306.749 873.85 306.898 873.543L291.858 866.275L295.895 857.92L327.647 873.262L315.98 897.407L305.665 892.423C306.299 889.933 306.583 887.63 306.516 885.513C300.272 888.04 292.386 887.002 282.859 882.398ZM350.291 914.98L345.047 912.447C327.606 904.019 321.336 894.735 326.236 884.592L326.515 884.016L344.494 892.703C342.852 896.886 345.45 900.629 352.289 903.933L352.807 904.184C354.997 905.242 356.868 906.027 358.421 906.541C359.992 907.016 361.216 907.228 362.093 907.178C362.989 907.089 363.654 906.89 364.089 906.578C364.581 906.247 364.966 905.794 365.244 905.217L365.272 905.16C365.662 904.353 365.757 903.617 365.557 902.952C365.414 902.267 364.658 901.38 363.288 900.292C361.976 899.184 359.897 897.895 357.053 896.426L349.212 892.353C335.375 885.194 330.443 877.503 334.416 869.282L334.666 868.763C335.39 867.265 336.251 866.023 337.249 865.036C338.266 864.011 339.61 863.191 341.281 862.577C342.952 861.963 344.876 861.708 347.052 861.812C349.229 861.916 351.889 862.443 355.031 863.393C358.231 864.322 361.771 865.725 365.651 867.6L370.779 870.078C388.144 878.468 394.645 887.177 390.283 896.205L390.06 896.666L372.254 888.062C373.374 884.86 370.65 881.672 364.081 878.498L363.505 878.22C360.815 876.92 358.657 876.091 357.03 875.731C355.422 875.333 354.343 875.262 353.793 875.517C353.262 875.735 352.838 876.17 352.523 876.823L352.495 876.88C352.179 877.533 352.111 878.164 352.291 878.772C352.51 879.399 353.246 880.229 354.5 881.261C355.773 882.255 357.688 883.394 360.243 884.676L367.881 888.58C375.876 892.727 381.129 896.663 383.641 900.388C386.172 904.075 386.389 908.089 384.291 912.43L383.901 913.237C383.14 914.812 382.252 916.16 381.237 917.281C380.24 918.363 378.841 919.298 377.038 920.085C375.255 920.835 373.18 921.206 370.813 921.2C368.504 921.174 365.577 920.66 362.034 919.659C358.547 918.638 354.633 917.078 350.291 914.98ZM373.723 936.822L377.677 928.639L426.371 952.167L422.417 960.35L373.723 936.822ZM450.449 909.497L468.774 918.351L481.89 954.755L493.668 930.379L509.918 938.231L489.203 981.105L472.837 973.197L458.541 934.233L445.983 960.222L429.733 952.37L450.449 909.497ZM515.446 940.902L561.95 963.372L556.883 973.86L526.572 959.214L523.982 964.574L553.659 978.913L548.564 989.459L518.887 975.119L510.924 991.6L494.731 983.776L515.446 940.902ZM563.17 1016.84L578.233 985.669L559.735 976.731L565.388 965.033L618.749 990.817L613.097 1002.51L594.599 993.577L579.535 1024.75L563.17 1016.84Z" fill="#1E1E1E"/>
<path opacity="0.2" d="M701.599 766.763L722.315 723.889L744.789 734.749L746.289 765.185L771.297 747.557L792.849 757.97L772.133 800.844L755.94 793.02L768.86 766.281L740.9 785.752L732.544 781.715L730.481 747.737L717.561 774.476L701.599 766.763ZM828.639 774.268L831.232 775.521C835.035 777.359 838.363 779.299 841.215 781.34C844.124 783.361 846.43 785.305 848.135 787.171C849.896 789.018 851.268 790.936 852.249 792.926C853.287 794.897 853.97 796.72 854.298 798.395C854.626 800.069 854.706 801.767 854.539 803.486C854.41 805.225 854.134 806.726 853.712 807.992C853.329 809.275 852.822 810.57 852.191 811.877L851.355 813.605C850.724 814.911 850.025 816.114 849.257 817.212C848.528 818.328 847.514 819.497 846.213 820.717C844.97 821.916 843.581 822.928 842.047 823.75C840.569 824.552 838.727 825.178 836.519 825.628C834.311 826.078 831.947 826.215 829.426 826.039C826.904 825.863 823.948 825.264 820.556 824.241C817.185 823.276 813.578 821.865 809.736 820.008L807.143 818.755C803.302 816.899 799.936 814.941 797.045 812.881C794.175 810.878 791.868 808.934 790.125 807.05C788.42 805.183 787.058 803.246 786.039 801.237C785.019 799.228 784.346 797.386 784.018 795.711C783.747 794.016 783.676 792.3 783.805 790.562C783.991 788.804 784.276 787.283 784.659 785.999C785.081 784.734 785.607 783.448 786.238 782.142L787.074 780.413C787.705 779.107 788.385 777.895 789.114 776.779C789.881 775.681 790.887 774.532 792.13 773.332C793.412 772.15 794.791 771.158 796.269 770.356C797.785 769.572 799.637 768.974 801.826 768.563C804.034 768.113 806.389 767.996 808.892 768.21C811.451 768.404 814.408 769.003 817.761 770.008C821.171 770.992 824.797 772.412 828.639 774.268ZM834.664 804.901L835.054 804.094C835.666 802.826 836.002 801.543 836.061 800.245C836.138 798.908 835.87 797.451 835.257 795.876C834.683 794.319 833.468 792.713 831.614 791.059C829.76 789.405 827.334 787.854 824.338 786.406C821.264 784.921 818.503 783.966 816.055 783.541C813.607 783.116 811.594 783.163 810.017 783.68C808.44 784.198 807.152 784.902 806.153 785.794C805.211 786.665 804.433 787.735 803.821 789.002L803.486 789.694C802.874 790.962 802.52 792.283 802.424 793.659C802.347 794.995 802.577 796.481 803.114 798.115C803.67 799.71 804.866 801.354 806.702 803.047C808.576 804.758 811.011 806.337 814.008 807.785C817.004 809.233 819.727 810.169 822.175 810.594C824.68 810.999 826.731 810.924 828.326 810.368C829.922 809.812 831.219 809.088 832.218 808.197C833.236 807.267 834.051 806.168 834.664 804.901ZM866.154 793.39L884.479 802.245L897.595 838.649L909.373 814.273L925.624 822.125L904.908 864.999L888.542 857.091L874.246 818.126L861.689 844.116L845.438 836.264L866.154 793.39ZM938.859 882.398L937.534 881.758C933.039 879.586 929.266 877.195 926.216 874.583C923.184 871.934 920.974 869.397 919.586 866.973C918.217 864.511 917.334 861.975 916.936 859.366C916.556 856.719 916.562 854.353 916.954 852.267C917.403 850.162 918.1 848.13 919.047 846.171L919.827 844.557C920.81 842.521 921.969 840.711 923.302 839.129C924.654 837.507 926.467 836.061 928.74 834.79C931.069 833.499 933.644 832.682 936.464 832.338C939.34 831.975 942.836 832.242 946.951 833.141C951.123 834.019 955.629 835.628 960.47 837.967L962.717 839.053C967.711 841.466 971.896 843.985 975.271 846.611C978.703 849.217 981.159 851.589 982.638 853.725C984.174 855.841 985.186 858.013 985.674 860.239C986.22 862.445 986.369 864.294 986.122 865.786C985.893 867.239 985.455 868.686 984.807 870.126L984.779 870.183L967.721 861.942C967.812 861.559 967.835 861.167 967.791 860.767C967.805 860.347 967.643 859.7 967.307 858.827C966.971 857.954 966.435 857.103 965.698 856.273C965.019 855.423 963.87 854.418 962.251 853.257C960.651 852.057 958.718 850.91 956.451 849.815C946.578 845.044 939.933 846.193 936.518 853.262L936.212 853.896C934.745 856.931 934.712 860.089 936.111 863.372C937.529 866.616 940.716 869.435 945.672 871.829C947.784 872.85 949.77 873.644 951.629 874.21C953.506 874.738 955.066 875.042 956.307 875.12C957.587 875.217 958.713 875.193 959.684 875.046C960.693 874.918 961.435 874.707 961.908 874.415C962.419 874.141 962.749 873.85 962.898 873.543L947.858 866.275L951.895 857.92L983.647 873.262L971.98 897.407L961.665 892.423C962.299 889.933 962.583 887.63 962.516 885.513C956.272 888.04 948.386 887.002 938.859 882.398ZM1006.29 914.98L1001.05 912.447C983.606 904.019 977.336 894.735 982.236 884.592L982.515 884.016L1000.49 892.703C998.852 896.886 1001.45 900.629 1008.29 903.933L1008.81 904.184C1011 905.242 1012.87 906.027 1014.42 906.541C1015.99 907.016 1017.22 907.228 1018.09 907.178C1018.99 907.089 1019.65 906.89 1020.09 906.578C1020.58 906.247 1020.97 905.794 1021.24 905.217L1021.27 905.16C1021.66 904.353 1021.76 903.617 1021.56 902.952C1021.41 902.267 1020.66 901.38 1019.29 900.292C1017.98 899.184 1015.9 897.895 1013.05 896.426L1005.21 892.353C991.375 885.194 986.443 877.503 990.416 869.282L990.666 868.763C991.39 867.265 992.251 866.023 993.249 865.036C994.266 864.011 995.61 863.191 997.281 862.577C998.952 861.963 1000.88 861.708 1003.05 861.812C1005.23 861.916 1007.89 862.443 1011.03 863.393C1014.23 864.322 1017.77 865.725 1021.65 867.6L1026.78 870.078C1044.14 878.468 1050.65 887.177 1046.28 896.205L1046.06 896.666L1028.25 888.062C1029.37 884.86 1026.65 881.672 1020.08 878.498L1019.5 878.22C1016.82 876.92 1014.66 876.091 1013.03 875.731C1011.42 875.333 1010.34 875.262 1009.79 875.517C1009.26 875.735 1008.84 876.17 1008.52 876.823L1008.49 876.88C1008.18 877.533 1008.11 878.164 1008.29 878.772C1008.51 879.399 1009.25 880.229 1010.5 881.261C1011.77 882.255 1013.69 883.394 1016.24 884.676L1023.88 888.58C1031.88 892.727 1037.13 896.663 1039.64 900.388C1042.17 904.075 1042.39 908.089 1040.29 912.43L1039.9 913.237C1039.14 914.812 1038.25 916.16 1037.24 917.281C1036.24 918.363 1034.84 919.298 1033.04 920.085C1031.25 920.835 1029.18 921.206 1026.81 921.2C1024.5 921.174 1021.58 920.66 1018.03 919.659C1014.55 918.638 1010.63 917.078 1006.29 914.98ZM1029.72 936.822L1033.68 928.639L1082.37 952.167L1078.42 960.35L1029.72 936.822ZM1106.45 909.497L1124.77 918.351L1137.89 954.755L1149.67 930.379L1165.92 938.231L1145.2 981.105L1128.84 973.197L1114.54 934.233L1101.98 960.222L1085.73 952.37L1106.45 909.497ZM1171.45 940.902L1217.95 963.372L1212.88 973.86L1182.57 959.214L1179.98 964.574L1209.66 978.913L1204.56 989.459L1174.89 975.119L1166.92 991.6L1150.73 983.776L1171.45 940.902ZM1219.17 1016.84L1234.23 985.669L1215.74 976.731L1221.39 965.033L1274.75 990.817L1269.1 1002.51L1250.6 993.577L1235.54 1024.75L1219.17 1016.84Z" fill="#1E1E1E"/>
<path opacity="0.2" d="M1357.6 766.763L1378.31 723.889L1400.79 734.749L1402.29 765.185L1427.3 747.557L1448.85 757.97L1428.13 800.844L1411.94 793.02L1424.86 766.281L1396.9 785.752L1388.54 781.715L1386.48 747.737L1373.56 774.476L1357.6 766.763ZM1484.64 774.268L1487.23 775.521C1491.04 777.359 1494.36 779.299 1497.21 781.34C1500.12 783.361 1502.43 785.305 1504.13 787.171C1505.9 789.018 1507.27 790.936 1508.25 792.926C1509.29 794.897 1509.97 796.72 1510.3 798.395C1510.63 800.069 1510.71 801.767 1510.54 803.486C1510.41 805.225 1510.13 806.726 1509.71 807.992C1509.33 809.275 1508.82 810.57 1508.19 811.877L1507.36 813.605C1506.72 814.911 1506.02 816.114 1505.26 817.212C1504.53 818.328 1503.51 819.497 1502.21 820.717C1500.97 821.916 1499.58 822.928 1498.05 823.75C1496.57 824.552 1494.73 825.178 1492.52 825.628C1490.31 826.078 1487.95 826.215 1485.43 826.039C1482.9 825.863 1479.95 825.264 1476.56 824.241C1473.18 823.276 1469.58 821.865 1465.74 820.008L1463.14 818.755C1459.3 816.899 1455.94 814.941 1453.05 812.881C1450.17 810.878 1447.87 808.934 1446.13 807.05C1444.42 805.183 1443.06 803.246 1442.04 801.237C1441.02 799.228 1440.35 797.386 1440.02 795.711C1439.75 794.016 1439.68 792.3 1439.8 790.562C1439.99 788.804 1440.28 787.283 1440.66 785.999C1441.08 784.734 1441.61 783.448 1442.24 782.142L1443.07 780.413C1443.7 779.107 1444.38 777.895 1445.11 776.779C1445.88 775.681 1446.89 774.532 1448.13 773.332C1449.41 772.15 1450.79 771.158 1452.27 770.356C1453.78 769.572 1455.64 768.974 1457.83 768.563C1460.03 768.113 1462.39 767.996 1464.89 768.21C1467.45 768.404 1470.41 769.003 1473.76 770.008C1477.17 770.992 1480.8 772.412 1484.64 774.268ZM1490.66 804.901L1491.05 804.094C1491.67 802.826 1492 801.543 1492.06 800.245C1492.14 798.908 1491.87 797.451 1491.26 795.876C1490.68 794.319 1489.47 792.713 1487.61 791.059C1485.76 789.405 1483.33 787.854 1480.34 786.406C1477.26 784.921 1474.5 783.966 1472.06 783.541C1469.61 783.116 1467.59 783.163 1466.02 783.68C1464.44 784.198 1463.15 784.902 1462.15 785.794C1461.21 786.665 1460.43 787.735 1459.82 789.002L1459.49 789.694C1458.87 790.962 1458.52 792.283 1458.42 793.659C1458.35 794.995 1458.58 796.481 1459.11 798.115C1459.67 799.71 1460.87 801.354 1462.7 803.047C1464.58 804.758 1467.01 806.337 1470.01 807.785C1473 809.233 1475.73 810.169 1478.17 810.594C1480.68 810.999 1482.73 810.924 1484.33 810.368C1485.92 809.812 1487.22 809.088 1488.22 808.197C1489.24 807.267 1490.05 806.168 1490.66 804.901ZM1522.15 793.39L1540.48 802.245L1553.6 838.649L1565.37 814.273L1581.62 822.125L1560.91 864.999L1544.54 857.091L1530.25 818.126L1517.69 844.116L1501.44 836.264L1522.15 793.39ZM1594.86 882.398L1593.53 881.758C1589.04 879.586 1585.27 877.195 1582.22 874.583C1579.18 871.934 1576.97 869.397 1575.59 866.973C1574.22 864.511 1573.33 861.975 1572.94 859.366C1572.56 856.719 1572.56 854.353 1572.95 852.267C1573.4 850.162 1574.1 848.13 1575.05 846.171L1575.83 844.557C1576.81 842.521 1577.97 840.711 1579.3 839.129C1580.65 837.507 1582.47 836.061 1584.74 834.79C1587.07 833.499 1589.64 832.682 1592.46 832.338C1595.34 831.975 1598.84 832.242 1602.95 833.141C1607.12 834.019 1611.63 835.628 1616.47 837.967L1618.72 839.053C1623.71 841.466 1627.9 843.985 1631.27 846.611C1634.7 849.217 1637.16 851.589 1638.64 853.725C1640.17 855.841 1641.19 858.013 1641.67 860.239C1642.22 862.445 1642.37 864.294 1642.12 865.786C1641.89 867.239 1641.45 868.686 1640.81 870.126L1640.78 870.183L1623.72 861.942C1623.81 861.559 1623.84 861.167 1623.79 860.767C1623.8 860.347 1623.64 859.7 1623.31 858.827C1622.97 857.954 1622.43 857.103 1621.7 856.273C1621.02 855.423 1619.87 854.418 1618.25 853.257C1616.65 852.057 1614.72 850.91 1612.45 849.815C1602.58 845.044 1595.93 846.193 1592.52 853.262L1592.21 853.896C1590.75 856.931 1590.71 860.089 1592.11 863.372C1593.53 866.616 1596.72 869.435 1601.67 871.829C1603.78 872.85 1605.77 873.644 1607.63 874.21C1609.51 874.738 1611.07 875.042 1612.31 875.12C1613.59 875.217 1614.71 875.193 1615.68 875.046C1616.69 874.918 1617.43 874.707 1617.91 874.415C1618.42 874.141 1618.75 873.85 1618.9 873.543L1603.86 866.275L1607.89 857.92L1639.65 873.262L1627.98 897.407L1617.67 892.423C1618.3 889.933 1618.58 887.63 1618.52 885.513C1612.27 888.04 1604.39 887.002 1594.86 882.398ZM1662.29 914.98L1657.05 912.447C1639.61 904.019 1633.34 894.735 1638.24 884.592L1638.51 884.016L1656.49 892.703C1654.85 896.886 1657.45 900.629 1664.29 903.933L1664.81 904.184C1667 905.242 1668.87 906.027 1670.42 906.541C1671.99 907.016 1673.22 907.228 1674.09 907.178C1674.99 907.089 1675.65 906.89 1676.09 906.578C1676.58 906.247 1676.97 905.794 1677.24 905.217L1677.27 905.16C1677.66 904.353 1677.76 903.617 1677.56 902.952C1677.41 902.267 1676.66 901.38 1675.29 900.292C1673.98 899.184 1671.9 897.895 1669.05 896.426L1661.21 892.353C1647.38 885.194 1642.44 877.503 1646.42 869.282L1646.67 868.763C1647.39 867.265 1648.25 866.023 1649.25 865.036C1650.27 864.011 1651.61 863.191 1653.28 862.577C1654.95 861.963 1656.88 861.708 1659.05 861.812C1661.23 861.916 1663.89 862.443 1667.03 863.393C1670.23 864.322 1673.77 865.725 1677.65 867.6L1682.78 870.078C1700.14 878.468 1706.65 887.177 1702.28 896.205L1702.06 896.666L1684.25 888.062C1685.37 884.86 1682.65 881.672 1676.08 878.498L1675.5 878.22C1672.82 876.92 1670.66 876.091 1669.03 875.731C1667.42 875.333 1666.34 875.262 1665.79 875.517C1665.26 875.735 1664.84 876.17 1664.52 876.823L1664.49 876.88C1664.18 877.533 1664.11 878.164 1664.29 878.772C1664.51 879.399 1665.25 880.229 1666.5 881.261C1667.77 882.255 1669.69 883.394 1672.24 884.676L1679.88 888.58C1687.88 892.727 1693.13 896.663 1695.64 900.388C1698.17 904.075 1698.39 908.089 1696.29 912.43L1695.9 913.237C1695.14 914.812 1694.25 916.16 1693.24 917.281C1692.24 918.363 1690.84 919.298 1689.04 920.085C1687.25 920.835 1685.18 921.206 1682.81 921.2C1680.5 921.174 1677.58 920.66 1674.03 919.659C1670.55 918.638 1666.63 917.078 1662.29 914.98ZM1685.72 936.822L1689.68 928.639L1738.37 952.167L1734.42 960.35L1685.72 936.822ZM1762.45 909.497L1780.77 918.351L1793.89 954.755L1805.67 930.379L1821.92 938.231L1801.2 981.105L1784.84 973.197L1770.54 934.233L1757.98 960.222L1741.73 952.37L1762.45 909.497ZM1827.45 940.902L1873.95 963.372L1868.88 973.86L1838.57 959.214L1835.98 964.574L1865.66 978.913L1860.56 989.459L1830.89 975.119L1822.92 991.6L1806.73 983.776L1827.45 940.902ZM1875.17 1016.84L1890.23 985.669L1871.74 976.731L1877.39 965.033L1930.75 990.817L1925.1 1002.51L1906.6 993.577L1891.54 1024.75L1875.17 1016.84Z" fill="#1E1E1E"/>
<g filter="url(#filter0_f_85_8)">
<circle cx="428" cy="99" r="283" fill="#B96223"/>
</g>
<g filter="url(#filter1_f_85_8)">
<circle cx="1185" cy="595" r="283" fill="#B96223"/>
</g>
<g filter="url(#filter2_f_85_8)">
<circle cx="1769" cy="142" r="283" fill="#B96223"/>
</g>
<g filter="url(#filter3_f_85_8)">
<circle cx="318" cy="838" r="283" fill="#B96223"/>
</g>
<g filter="url(#filter4_f_85_8)">
<circle cx="1769" cy="797" r="283" fill="#B96223"/>
</g>
<g filter="url(#filter5_f_85_8)">
<circle cx="629" cy="515" r="283" fill="#B96223"/>
</g>
<g filter="url(#filter6_f_85_8)">
<circle cx="912" cy="838" r="283" fill="#B96223"/>
</g>
<g filter="url(#filter7_f_85_8)">
<circle cx="1185" cy="122" r="283" fill="#B96223"/>
</g>
</g>
<defs>
<filter id="filter0_f_85_8" x="-155" y="-484" width="1166" height="1166" filterUnits="userSpaceOnUse" color-interpolation-filters="sRGB">
<feFlood flood-opacity="0" result="BackgroundImageFix"/>
<feBlend mode="normal" in="SourceGraphic" in2="BackgroundImageFix" result="shape"/>
<feGaussianBlur stdDeviation="150" result="effect1_foregroundBlur_85_8"/>
</filter>
<filter id="filter1_f_85_8" x="602" y="12" width="1166" height="1166" filterUnits="userSpaceOnUse" color-interpolation-filters="sRGB">
<feFlood flood-opacity="0" result="BackgroundImageFix"/>
<feBlend mode="normal" in="SourceGraphic" in2="BackgroundImageFix" result="shape"/>
<feGaussianBlur stdDeviation="150" result="effect1_foregroundBlur_85_8"/>
</filter>
<filter id="filter2_f_85_8" x="1186" y="-441" width="1166" height="1166" filterUnits="userSpaceOnUse" color-interpolation-filters="sRGB">
<feFlood flood-opacity="0" result="BackgroundImageFix"/>
<feBlend mode="normal" in="SourceGraphic" in2="BackgroundImageFix" result="shape"/>
<feGaussianBlur stdDeviation="150" result="effect1_foregroundBlur_85_8"/>
</filter>
<filter id="filter3_f_85_8" x="-265" y="255" width="1166" height="1166" filterUnits="userSpaceOnUse" color-interpolation-filters="sRGB">
<feFlood flood-opacity="0" result="BackgroundImageFix"/>
<feBlend mode="normal" in="SourceGraphic" in2="BackgroundImageFix" result="shape"/>
<feGaussianBlur stdDeviation="150" result="effect1_foregroundBlur_85_8"/>
</filter>
<filter id="filter4_f_85_8" x="1186" y="214" width="1166" height="1166" filterUnits="userSpaceOnUse" color-interpolation-filters="sRGB">
<feFlood flood-opacity="0" result="BackgroundImageFix"/>
<feBlend mode="normal" in="SourceGraphic" in2="BackgroundImageFix" result="shape"/>
<feGaussianBlur stdDeviation="150" result="effect1_foregroundBlur_85_8"/>
</filter>
<filter id="filter5_f_85_8" x="46" y="-68" width="1166" height="1166" filterUnits="userSpaceOnUse" color-interpolation-filters="sRGB">
<feFlood flood-opacity="0" result="BackgroundImageFix"/>
<feBlend mode="normal" in="SourceGraphic" in2="BackgroundImageFix" result="shape"/>
<feGaussianBlur stdDeviation="150" result="effect1_foregroundBlur_85_8"/>
</filter>
<filter id="filter6_f_85_8" x="329" y="255" width="1166" height="1166" filterUnits="userSpaceOnUse" color-interpolation-filters="sRGB">
<feFlood flood-opacity="0" result="BackgroundImageFix"/>
<feBlend mode="normal" in="SourceGraphic" in2="BackgroundImageFix" result="shape"/>
<feGaussianBlur stdDeviation="150" result="effect1_foregroundBlur_85_8"/>
</filter>
<filter id="filter7_f_85_8" x="602" y="-461" width="1166" height="1166" filterUnits="userSpaceOnUse" color-interpolation-filters="sRGB">
<feFlood flood-opacity="0" result="BackgroundImageFix"/>
<feBlend mode="normal" in="SourceGraphic" in2="BackgroundImageFix" result="shape"/>
<feGaussianBlur stdDeviation="150" result="effect1_foregroundBlur_85_8"/>
</filter>
<clipPath id="clip0_85_8">
<rect width="1920" height="1080" fill="white"/>
</clipPath>
</defs>
</svg>
