<svg width="94" height="92" viewBox="0 0 94 92" fill="none" xmlns="http://www.w3.org/2000/svg">
<rect x="2" y="2" width="89.2537" height="88" rx="44" fill="#D9D3C3" stroke="black" stroke-width="4"/>
<path d="M20.5195 46.153L28.8271 42.5185V33.1725L38.1731 38.3647L46.4806 34.7301L28.8271 24.3457L20.5195 28.4995V46.153Z" fill="black"/>
<path d="M73.999 28.4998L66.7299 24.8652L57.3839 30.0574L63.6146 33.1728L20 53.4224V63.8068L26.7499 66.9222L36.6151 62.7684L30.3844 59.1339L73.999 39.4034V28.4998Z" fill="black"/>
<path d="M74.0001 62.7684V46.1533L66.2118 49.2686V58.6146L56.3466 53.9416L48.0391 58.6146L66.2118 67.4414L74.0001 62.7684Z" fill="black"/>
<path d="M47.5193 67.9607L42.8463 65.8838L34.0195 70.0376L47.5193 77.3067L61.019 70.0376L53.2307 65.8838L47.5193 67.9607Z" fill="black"/>
<path d="M47.5193 15L34.0195 21.7499L42.3271 26.9421L47.5193 24.346L51.6731 26.9421L61.019 22.7883L47.5193 15Z" fill="black"/>
</svg>
