<svg width="528" height="223" viewBox="0 0 528 223" fill="none" xmlns="http://www.w3.org/2000/svg">
<path d="M12.5895 90.246C35.0868 69.2828 60.002 53.7444 87.1387 43.5526C106.521 36.2731 126.664 32.1124 146.603 27.7541C184.035 19.5723 221.728 12.9019 259.629 8.79591C330.86 1.0792 402.009 2.02173 472.637 16.4319C489.207 19.8125 505.583 24.9137 512.208 45.6591C519.645 68.9493 521.867 97.2512 523.814 122.045L523.867 122.721C524.584 131.846 522.394 135.683 517.454 142.469C504.011 160.937 488.391 175.914 470.087 186.968C439.974 205.153 402.82 212.319 369.449 215.669C310.975 221.538 250.218 219.15 191.857 212.421C157.046 208.408 119.886 201.401 86.1914 189.426C69.2008 183.387 46.0689 175.991 31.828 162.217C22.8156 153.5 16.1048 142.472 9.96611 130.971C7.64916 126.63 4.71422 119.829 4.06339 114.734C3.55282 110.737 6.28446 108.235 6.61394 104.465C6.85696 101.684 7.30119 98.289 8.34113 95.4717C9.2344 93.0517 10.5672 91.0579 12.5895 90.246Z" fill="#D9D3C3"/>
<path d="M4.06339 104.465C4.42953 100.055 10.5657 92.1318 12.5895 90.246M12.5895 90.246C35.0868 69.2828 60.002 53.7444 87.1387 43.5526C106.521 36.2731 126.664 32.1124 146.603 27.7541C184.035 19.5723 221.728 12.9019 259.629 8.79591C330.86 1.0792 402.009 2.02173 472.637 16.4319C489.207 19.8125 505.583 24.9137 512.208 45.6591C519.713 69.1612 521.907 97.7666 523.867 122.721C524.584 131.846 522.394 135.683 517.454 142.469C504.011 160.937 488.391 175.914 470.087 186.968C439.974 205.153 402.82 212.319 369.449 215.669C310.975 221.538 250.218 219.15 191.857 212.421C157.046 208.408 119.886 201.401 86.1914 189.426C69.2008 183.387 46.0689 175.991 31.828 162.217C22.8156 153.5 16.1048 142.472 9.96611 130.971C7.64916 126.63 4.71422 119.829 4.06339 114.734C3.55282 110.737 6.28446 108.235 6.61394 104.465C7.0657 99.2957 8.21279 92.0031 12.5895 90.246Z" stroke="black" stroke-width="8" stroke-linecap="round"/>
<path d="M109.518 81.3286H108.687C107.51 81.3286 107.164 81.1166 106.818 80.0565L105.122 74.5795C105.019 74.2261 104.949 74.1908 104.776 74.1908C104.569 74.1908 104.499 74.2615 104.499 74.5795V87.5477C104.499 88.5724 104.222 88.8551 103.219 88.8551H101.281C100.277 88.8551 100 88.5724 100 87.5477V63.6608C100 62.636 100.277 62.3534 101.281 62.3534H103.496C105.019 62.3534 105.503 62.7067 105.953 64.1908L108.687 73.3781C108.791 73.6961 108.895 73.8021 109.103 73.8021C109.31 73.8021 109.414 73.6961 109.518 73.3781L112.252 64.1908C112.702 62.7067 113.187 62.3534 114.709 62.3534H116.925C117.928 62.3534 118.205 62.636 118.205 63.6608V87.5477C118.205 88.5724 117.928 88.8551 116.925 88.8551H114.986C113.983 88.8551 113.706 88.5724 113.706 87.5477V74.5795C113.706 74.2615 113.637 74.1908 113.429 74.1908C113.256 74.1908 113.187 74.2261 113.083 74.5795L111.387 80.0565C111.041 81.1166 110.695 81.3286 109.518 81.3286Z" fill="black"/>
<path d="M134.375 81.0813C134.375 87.053 132.713 89.2085 127.695 89.2085C122.676 89.2085 121.015 87.053 121.015 81.0813V70.1272C121.015 64.1908 122.676 62 127.695 62C132.713 62 134.375 64.1908 134.375 70.1272V81.0813ZM125.93 82.2827C125.93 83.6961 126.484 84.2615 127.695 84.2615C128.906 84.2615 129.46 83.6961 129.46 82.2827V69.1025C129.46 67.5477 128.906 66.947 127.695 66.947C126.484 66.947 125.93 67.5477 125.93 69.1025V82.2827Z" fill="black"/>
<path d="M145.901 71.0813C146.074 71.3993 146.143 71.47 146.351 71.47C146.559 71.47 146.628 71.364 146.628 71.1166V63.6608C146.628 62.636 146.905 62.3534 147.908 62.3534H150.02C151.023 62.3534 151.3 62.636 151.3 63.6608V87.5477C151.3 88.5724 151.023 88.8551 150.02 88.8551H147.908C146.905 88.8551 146.628 88.5724 146.628 87.5477V82.7067C146.628 81.0459 146.386 80.4452 145.797 79.3145L142.578 73.2014C142.405 72.8834 142.336 72.8127 142.129 72.8127C141.921 72.8127 141.852 72.9187 141.852 73.1661V87.5477C141.852 88.5724 141.575 88.8551 140.571 88.8551H138.46C137.456 88.8551 137.179 88.5724 137.179 87.5477V63.6608C137.179 62.636 137.456 62.3534 138.46 62.3534H139.81C141.09 62.3534 141.575 62.5654 142.302 64.0141L145.901 71.0813Z" fill="black"/>
<path d="M162.826 79.4205C162.826 78.9258 162.688 78.7845 162.203 78.7845H161.788C160.784 78.7845 160.508 78.5018 160.508 77.477V75.1449C160.508 74.1201 160.784 73.8375 161.788 73.8375H166.184C167.187 73.8375 167.464 74.1201 167.464 75.1449V81.4346C167.464 87.1237 165.803 89.2085 160.784 89.2085C155.766 89.2085 154.105 87.1237 154.105 81.4346V69.7739C154.105 64.0848 155.766 62 160.784 62C165.803 62 167.395 64.0848 167.395 69.7739V69.9505C167.395 70.9753 167.118 71.258 166.114 71.258H163.899C162.896 71.258 162.619 70.9753 162.619 69.9505V68.9258C162.619 67.5124 162.03 66.947 160.819 66.947C159.608 66.947 159.019 67.5124 159.019 68.9258V82.2827C159.019 83.6961 159.642 84.2615 160.923 84.2615C162.238 84.2615 162.826 83.6961 162.826 82.2827V79.4205Z" fill="black"/>
<path d="M175.329 71.788L179.759 75.8869C182.078 78.0071 182.597 79.2792 182.597 81.6466V82.2827C182.597 86.735 180.936 89.2085 175.918 89.2085C170.899 89.2085 169.238 87.1237 169.238 81.4346V80.7279C169.238 79.7032 169.515 79.4205 170.518 79.4205H172.872C173.876 79.4205 174.152 79.7032 174.152 80.7279V82.2827C174.152 83.6961 174.706 84.2615 175.918 84.2615C177.129 84.2615 177.683 83.7314 177.683 82.4594V81.788C177.683 80.7986 177.475 80.3039 176.194 79.1378L172.041 75.3569C169.722 73.2721 169.238 72.0707 169.238 69.7032V68.9258C169.238 64.4735 170.899 62 175.918 62C180.936 62 182.597 64.0848 182.597 69.7739V70.4806C182.597 71.5053 182.321 71.788 181.317 71.788H178.963C177.96 71.788 177.683 71.5053 177.683 70.4806V68.9258C177.683 67.5124 177.129 66.947 175.918 66.947C174.706 66.947 174.152 67.477 174.152 68.7491V69.3498C174.152 70.3746 174.36 70.8693 175.329 71.788Z" fill="black"/>
<path d="M194.632 62.3534H198.993C200.551 62.3534 201.035 62.8834 201.208 64.1908L204.254 87.5477C204.393 88.5724 204.116 88.8551 203.112 88.8551H200.724C199.686 88.8551 199.443 88.6078 199.305 87.5477L198.855 83.6961C198.82 83.3428 198.716 83.2367 198.301 83.2367H195.325C194.909 83.2367 194.805 83.3428 194.771 83.6961L194.321 87.5477C194.182 88.6078 193.94 88.8551 192.902 88.8551H190.514C189.51 88.8551 189.233 88.5724 189.372 87.5477L192.417 64.1908C192.59 62.8834 193.075 62.3534 194.632 62.3534ZM197.436 69.5618C197.401 69.1378 197.194 69.0671 196.813 69.0671C196.432 69.0671 196.224 69.1378 196.19 69.5618L195.394 77.7951C195.359 78.2191 195.463 78.3251 195.913 78.3251H197.713C198.163 78.3251 198.266 78.2191 198.232 77.7951L197.436 69.5618Z" fill="black"/>
<path d="M215.03 87.8657L212.262 79.2792C212.089 78.7845 211.95 78.6431 211.431 78.6431H211.292C210.808 78.6431 210.669 78.7845 210.669 79.2792V87.5477C210.669 88.5724 210.393 88.8551 209.389 88.8551H207.174C206.17 88.8551 205.893 88.5724 205.893 87.5477V63.6608C205.893 62.636 206.17 62.3534 207.174 62.3534H211.742C217.003 62.3534 219.391 64.1908 219.391 68.7138V71.258C219.391 74.5795 218.872 75.8516 217.038 77.4417C216.83 77.583 216.796 77.6537 216.796 77.8304C216.796 77.9364 216.83 78.0424 216.899 78.2898L219.945 87.5124C220.257 88.4311 219.91 88.8551 219.011 88.8551H216.484C215.515 88.8551 215.307 88.7138 215.03 87.8657ZM210.669 67.7597V73.2014C210.669 73.6961 210.808 73.8375 211.292 73.8375H212.019C213.646 73.8375 214.477 73.0954 214.477 71.3993V69.4558C214.477 67.7951 213.715 67.1237 212.019 67.1237H211.292C210.808 67.1237 210.669 67.265 210.669 67.7597Z" fill="black"/>
<path d="M226.657 67.9364V71.894C226.657 72.3534 226.795 72.53 227.28 72.53H231.571C232.575 72.53 232.852 72.8127 232.852 73.8375V76.1696C232.852 77.1943 232.575 77.477 231.64 77.477H227.28C226.795 77.477 226.657 77.6184 226.657 78.1131V83.2721C226.657 83.7314 226.795 83.9081 227.28 83.9081H231.987C232.99 83.9081 233.267 84.1908 233.267 85.2155V87.5477C233.267 88.5724 232.99 88.8551 231.987 88.8551H223.161C222.157 88.8551 221.88 88.5724 221.88 87.5477V63.6608C221.88 62.636 222.157 62.3534 223.161 62.3534H231.987C232.99 62.3534 233.267 62.636 233.267 63.6608V65.9929C233.267 67.0177 232.99 67.3004 231.987 67.3004H227.28C226.795 67.3004 226.657 67.4417 226.657 67.9364Z" fill="black"/>
<path d="M245.264 62.3534H249.625C251.182 62.3534 251.667 62.8834 251.84 64.1908L254.885 87.5477C255.024 88.5724 254.747 88.8551 253.743 88.8551H251.355C250.317 88.8551 250.075 88.6078 249.936 87.5477L249.486 83.6961C249.452 83.3428 249.348 83.2367 248.932 83.2367H245.956C245.541 83.2367 245.437 83.3428 245.402 83.6961L244.952 87.5477C244.814 88.6078 244.572 88.8551 243.533 88.8551H241.145C240.141 88.8551 239.865 88.5724 240.003 87.5477L243.049 64.1908C243.222 62.8834 243.706 62.3534 245.264 62.3534ZM248.067 69.5618C248.033 69.1378 247.825 69.0671 247.444 69.0671C247.064 69.0671 246.856 69.1378 246.821 69.5618L246.025 77.7951C245.991 78.2191 246.094 78.3251 246.544 78.3251H248.344C248.794 78.3251 248.898 78.2191 248.863 77.7951L248.067 69.5618Z" fill="black"/>
<path d="M275.35 80.3746V81.4346C275.35 87.1237 273.758 89.2085 268.739 89.2085C263.721 89.2085 262.06 87.1237 262.06 81.4346V69.7739C262.06 64.0848 263.721 62 268.739 62C273.758 62 275.35 64.0848 275.35 69.7739V70.8339C275.35 71.8587 275.073 72.1413 274.069 72.1413H271.854C270.851 72.1413 270.574 71.8587 270.574 70.8339V68.9258C270.574 67.5124 269.985 66.947 268.774 66.947C267.563 66.947 266.974 67.5124 266.974 68.9258V82.2827C266.974 83.6961 267.563 84.2615 268.774 84.2615C269.985 84.2615 270.574 83.6961 270.574 82.2827V80.3746C270.574 79.3498 270.851 79.0671 271.854 79.0671H274.069C275.073 79.0671 275.35 79.3498 275.35 80.3746Z" fill="black"/>
<path d="M286.026 63.6608C286.026 62.636 286.303 62.3534 287.306 62.3534H289.521C290.525 62.3534 290.802 62.636 290.802 63.6608V81.4346C290.802 87.1237 289.141 89.2085 284.122 89.2085C279.104 89.2085 277.442 87.1237 277.442 81.4346V63.6608C277.442 62.636 277.719 62.3534 278.723 62.3534H280.938C281.942 62.3534 282.219 62.636 282.219 63.6608V82.2827C282.219 83.6961 282.807 84.2615 284.122 84.2615C285.403 84.2615 286.026 83.6961 286.026 82.2827V63.6608Z" fill="black"/>
<path d="M298.548 83.3428C298.548 83.7668 298.686 83.9081 299.171 83.9081H303.497C304.501 83.9081 304.778 84.1908 304.778 85.2155V87.5477C304.778 88.5724 304.501 88.8551 303.497 88.8551H295.052C294.048 88.8551 293.771 88.5724 293.771 87.5477V63.6608C293.771 62.636 294.048 62.3534 295.052 62.3534H297.267C298.271 62.3534 298.548 62.636 298.548 63.6608V83.3428Z" fill="black"/>
<path d="M314.493 67.3004H312.347C311.863 67.3004 311.724 67.4417 311.724 67.9364V87.5477C311.724 88.5724 311.447 88.8551 310.444 88.8551H308.229C307.225 88.8551 306.948 88.5724 306.948 87.5477V67.9364C306.948 67.4417 306.81 67.3004 306.325 67.3004H304.179C303.175 67.3004 302.899 67.0177 302.899 65.9929V63.6608C302.899 62.636 303.175 62.3534 304.179 62.3534H314.493C315.497 62.3534 315.774 62.636 315.774 63.6608V65.9929C315.774 67.0177 315.497 67.3004 314.493 67.3004Z" fill="black"/>
<path d="M325.368 63.6608C325.368 62.636 325.645 62.3534 326.649 62.3534H328.864C329.867 62.3534 330.144 62.636 330.144 63.6608V81.4346C330.144 87.1237 328.483 89.2085 323.465 89.2085C318.446 89.2085 316.785 87.1237 316.785 81.4346V63.6608C316.785 62.636 317.062 62.3534 318.065 62.3534H320.28C321.284 62.3534 321.561 62.636 321.561 63.6608V82.2827C321.561 83.6961 322.149 84.2615 323.465 84.2615C324.745 84.2615 325.368 83.6961 325.368 82.2827V63.6608Z" fill="black"/>
<path d="M342.251 87.8657L339.482 79.2792C339.309 78.7845 339.171 78.6431 338.652 78.6431H338.513C338.029 78.6431 337.89 78.7845 337.89 79.2792V87.5477C337.89 88.5724 337.613 88.8551 336.609 88.8551H334.394C333.391 88.8551 333.114 88.5724 333.114 87.5477V63.6608C333.114 62.636 333.391 62.3534 334.394 62.3534H338.963C344.224 62.3534 346.612 64.1908 346.612 68.7138V71.258C346.612 74.5795 346.093 75.8516 344.258 77.4417C344.051 77.583 344.016 77.6537 344.016 77.8304C344.016 77.9364 344.051 78.0424 344.12 78.2898L347.166 87.5124C347.477 88.4311 347.131 88.8551 346.231 88.8551H343.705C342.736 88.8551 342.528 88.7138 342.251 87.8657ZM337.89 67.7597V73.2014C337.89 73.6961 338.029 73.8375 338.513 73.8375H339.24C340.867 73.8375 341.697 73.0954 341.697 71.3993V69.4558C341.697 67.7951 340.936 67.1237 339.24 67.1237H338.513C338.029 67.1237 337.89 67.265 337.89 67.7597Z" fill="black"/>
<path d="M353.877 67.9364V71.894C353.877 72.3534 354.016 72.53 354.5 72.53H358.792C359.796 72.53 360.072 72.8127 360.072 73.8375V76.1696C360.072 77.1943 359.796 77.477 358.861 77.477H354.5C354.016 77.477 353.877 77.6184 353.877 78.1131V83.2721C353.877 83.7314 354.016 83.9081 354.5 83.9081H359.207C360.211 83.9081 360.488 84.1908 360.488 85.2155V87.5477C360.488 88.5724 360.211 88.8551 359.207 88.8551H350.381C349.378 88.8551 349.101 88.5724 349.101 87.5477V63.6608C349.101 62.636 349.378 62.3534 350.381 62.3534H359.207C360.211 62.3534 360.488 62.636 360.488 63.6608V65.9929C360.488 67.0177 360.211 67.3004 359.207 67.3004H354.5C354.016 67.3004 353.877 67.4417 353.877 67.9364Z" fill="black"/>
<path d="M363.761 89.0671C363.83 88.8905 363.796 88.8198 363.623 88.7845C362.411 88.6431 362.065 87.9364 362.065 86.6996V85.7809C362.065 84.3675 362.792 83.6254 364.176 83.6254H365.076C366.495 83.6254 367.188 84.3675 367.188 85.7809V86.8763C367.188 87.7244 367.084 88.2544 366.668 89.0318L365.388 91.47C365.146 91.9293 365.042 92 364.557 92H363.415C363.069 92 362.931 91.894 362.931 91.6466C362.931 91.5406 362.965 91.4346 363.034 91.2226L363.761 89.0671Z" fill="black"/>
<path d="M379.379 62.3534H383.74C385.298 62.3534 385.782 62.8834 385.955 64.1908L389.001 87.5477C389.14 88.5724 388.863 88.8551 387.859 88.8551H385.471C384.433 88.8551 384.19 88.6078 384.052 87.5477L383.602 83.6961C383.567 83.3428 383.463 83.2367 383.048 83.2367H380.072C379.656 83.2367 379.552 83.3428 379.518 83.6961L379.068 87.5477C378.929 88.6078 378.687 88.8551 377.649 88.8551H375.261C374.257 88.8551 373.98 88.5724 374.119 87.5477L377.164 64.1908C377.337 62.8834 377.822 62.3534 379.379 62.3534ZM382.183 69.5618C382.148 69.1378 381.941 69.0671 381.56 69.0671C381.179 69.0671 380.971 69.1378 380.937 69.5618L380.141 77.7951C380.106 78.2191 380.21 78.3251 380.66 78.3251H382.46C382.91 78.3251 383.014 78.2191 382.979 77.7951L382.183 69.5618Z" fill="black"/>
<path d="M404.343 88.8551H400.536C398.736 88.8551 398.217 88.3251 398.01 86.6643L395.345 63.6608C395.241 62.636 395.621 62.3534 396.625 62.3534H399.152C400.155 62.3534 400.363 62.636 400.432 63.6608L401.955 81.788C401.99 82.212 402.128 82.318 402.44 82.318C402.751 82.318 402.89 82.212 402.924 81.788L404.447 63.6608C404.516 62.636 404.724 62.3534 405.728 62.3534H408.254C409.258 62.3534 409.639 62.636 409.535 63.6608L406.87 86.6643C406.662 88.3251 406.143 88.8551 404.343 88.8551Z" fill="black"/>
<path d="M415.933 63.6608V87.5477C415.933 88.5724 415.656 88.8551 414.652 88.8551H412.437C411.433 88.8551 411.156 88.5724 411.156 87.5477V63.6608C411.156 62.636 411.433 62.3534 412.437 62.3534H414.652C415.656 62.3534 415.933 62.636 415.933 63.6608Z" fill="black"/>
<path d="M420.346 88.8551C419.342 88.8551 419.065 88.5724 419.065 87.5477V63.6608C419.065 62.636 419.342 62.3534 420.346 62.3534H425.261C430.279 62.3534 432.564 64.2615 432.564 68.5371V70.5866C432.564 72.424 431.975 73.7314 430.764 74.8622C430.66 74.9682 430.625 75.0035 430.625 75.0742C430.625 75.1449 430.66 75.1802 430.764 75.2862C432.079 76.3816 432.737 77.5477 432.737 79.4205V82.8481C432.737 86.947 430.348 88.8551 425.088 88.8551H420.346ZM423.842 67.9364V72C423.842 72.4947 423.98 72.636 424.465 72.636H425.192C426.887 72.636 427.649 72.0353 427.649 70.4806V69.4558C427.649 67.9011 426.887 67.3004 425.192 67.3004H424.465C423.98 67.3004 423.842 67.4417 423.842 67.9364ZM425.365 83.9081C427.06 83.9081 427.822 83.3074 427.822 81.7527V79.7385C427.822 78.1837 427.06 77.583 425.365 77.583H424.465C423.98 77.583 423.842 77.7244 423.842 78.2191V83.2721C423.842 83.7668 423.98 83.9081 424.465 83.9081H425.365Z" fill="black"/>
<path d="M439.863 67.9364V71.894C439.863 72.3534 440.001 72.53 440.486 72.53H444.777C445.781 72.53 446.058 72.8127 446.058 73.8375V76.1696C446.058 77.1943 445.781 77.477 444.847 77.477H440.486C440.001 77.477 439.863 77.6184 439.863 78.1131V83.2721C439.863 83.7314 440.001 83.9081 440.486 83.9081H445.193C446.196 83.9081 446.473 84.1908 446.473 85.2155V87.5477C446.473 88.5724 446.196 88.8551 445.193 88.8551H436.367C435.363 88.8551 435.086 88.5724 435.086 87.5477V63.6608C435.086 62.636 435.363 62.3534 436.367 62.3534H445.193C446.196 62.3534 446.473 62.636 446.473 63.6608V65.9929C446.473 67.0177 446.196 67.3004 445.193 67.3004H440.486C440.001 67.3004 439.863 67.4417 439.863 67.9364Z" fill="black"/>
<path d="M453 85.7809V86.6996C453 88.1484 452.308 88.8551 450.889 88.8551H449.989C448.604 88.8551 447.878 88.1484 447.878 86.6996V85.7809C447.878 84.3675 448.604 83.6254 449.989 83.6254H450.889C452.308 83.6254 453 84.3675 453 85.7809Z" fill="black"/>
<path d="M76.4792 108.36H74.9912C74.6552 108.36 74.5592 108.456 74.5592 108.792V122.112C74.5592 122.808 74.3672 123 73.6712 123H72.1352C71.4392 123 71.2472 122.808 71.2472 122.112V108.792C71.2472 108.456 71.1512 108.36 70.8152 108.36H69.3272C68.6312 108.36 68.4392 108.168 68.4392 107.472V105.888C68.4392 105.192 68.6312 105 69.3272 105H76.4792C77.1752 105 77.3672 105.192 77.3672 105.888V107.472C77.3672 108.168 77.1752 108.36 76.4792 108.36ZM84.2619 122.112V115.632C84.2619 115.296 84.1659 115.2 83.8299 115.2H81.8619C81.5259 115.2 81.4299 115.296 81.4299 115.632V122.112C81.4299 122.808 81.2379 123 80.5419 123H79.0059C78.3099 123 78.1179 122.808 78.1179 122.112V105.888C78.1179 105.192 78.3099 105 79.0059 105H80.5419C81.2379 105 81.4299 105.192 81.4299 105.888V111.408C81.4299 111.72 81.5259 111.84 81.8619 111.84H83.8299C84.1659 111.84 84.2619 111.72 84.2619 111.408V105.888C84.2619 105.192 84.4539 105 85.1499 105H86.6859C87.3819 105 87.5739 105.192 87.5739 105.888V122.112C87.5739 122.808 87.3819 123 86.6859 123H85.1499C84.4539 123 84.2619 122.808 84.2619 122.112ZM93.0784 108.792V111.48C93.0784 111.792 93.1744 111.912 93.5104 111.912H96.4864C97.1824 111.912 97.3744 112.104 97.3744 112.8V114.384C97.3744 115.08 97.1824 115.272 96.5344 115.272H93.5104C93.1744 115.272 93.0784 115.368 93.0784 115.704V119.208C93.0784 119.52 93.1744 119.64 93.5104 119.64H96.7744C97.4704 119.64 97.6624 119.832 97.6624 120.528V122.112C97.6624 122.808 97.4704 123 96.7744 123H90.6544C89.9584 123 89.7664 122.808 89.7664 122.112V105.888C89.7664 105.192 89.9584 105 90.6544 105H96.7744C97.4704 105 97.6624 105.192 97.6624 105.888V107.472C97.6624 108.168 97.4704 108.36 96.7744 108.36H93.5104C93.1744 108.36 93.0784 108.456 93.0784 108.792ZM103.335 111.6C103.479 111.6 103.527 111.552 103.575 111.312L104.631 105.888C104.775 105.192 105.015 105 105.663 105H107.511C108.207 105 108.399 105.288 108.207 105.888L105.111 116.184C104.991 116.616 104.967 116.76 104.967 117.456V122.112C104.967 122.808 104.775 123 104.079 123H102.591C101.895 123 101.703 122.808 101.703 122.112V117.456C101.703 116.76 101.679 116.616 101.559 116.184L98.4626 105.888C98.2706 105.288 98.4626 105 99.1586 105H101.007C101.655 105 101.895 105.192 102.039 105.888L103.095 111.312C103.143 111.552 103.191 111.6 103.335 111.6ZM114.162 123C113.466 123 113.274 122.808 113.274 122.112V105.888C113.274 105.192 113.466 105 114.162 105H117.57C121.05 105 122.634 106.296 122.634 109.2V110.592C122.634 111.84 122.226 112.728 121.386 113.496C121.314 113.568 121.29 113.592 121.29 113.64C121.29 113.688 121.314 113.712 121.386 113.784C122.298 114.528 122.754 115.32 122.754 116.592V118.92C122.754 121.704 121.098 123 117.45 123H114.162ZM116.586 108.792V111.552C116.586 111.888 116.682 111.984 117.018 111.984H117.522C118.698 111.984 119.226 111.576 119.226 110.52V109.824C119.226 108.768 118.698 108.36 117.522 108.36H117.018C116.682 108.36 116.586 108.456 116.586 108.792ZM117.642 119.64C118.818 119.64 119.346 119.232 119.346 118.176V116.808C119.346 115.752 118.818 115.344 117.642 115.344H117.018C116.682 115.344 116.586 115.44 116.586 115.776V119.208C116.586 119.544 116.682 119.64 117.018 119.64H117.642ZM127.696 108.792V111.48C127.696 111.792 127.792 111.912 128.128 111.912H131.104C131.8 111.912 131.992 112.104 131.992 112.8V114.384C131.992 115.08 131.8 115.272 131.152 115.272H128.128C127.792 115.272 127.696 115.368 127.696 115.704V119.208C127.696 119.52 127.792 119.64 128.128 119.64H131.392C132.088 119.64 132.28 119.832 132.28 120.528V122.112C132.28 122.808 132.088 123 131.392 123H125.272C124.576 123 124.384 122.808 124.384 122.112V105.888C124.384 105.192 124.576 105 125.272 105H131.392C132.088 105 132.28 105.192 132.28 105.888V107.472C132.28 108.168 132.088 108.36 131.392 108.36H128.128C127.792 108.36 127.696 108.456 127.696 108.792ZM137.117 119.256C137.117 119.544 137.213 119.64 137.549 119.64H140.549C141.245 119.64 141.437 119.832 141.437 120.528V122.112C141.437 122.808 141.245 123 140.549 123H134.693C133.997 123 133.805 122.808 133.805 122.112V105.888C133.805 105.192 133.997 105 134.693 105H136.229C136.925 105 137.117 105.192 137.117 105.888V119.256ZM145.485 105.888V122.112C145.485 122.808 145.293 123 144.597 123H143.061C142.365 123 142.173 122.808 142.173 122.112V105.888C142.173 105.192 142.365 105 143.061 105H144.597C145.293 105 145.485 105.192 145.485 105.888ZM150.969 108.792V111.48C150.969 111.792 151.065 111.912 151.401 111.912H154.377C155.073 111.912 155.265 112.104 155.265 112.8V114.384C155.265 115.08 155.073 115.272 154.425 115.272H151.401C151.065 115.272 150.969 115.368 150.969 115.704V119.208C150.969 119.52 151.065 119.64 151.401 119.64H154.665C155.361 119.64 155.553 119.832 155.553 120.528V122.112C155.553 122.808 155.361 123 154.665 123H148.545C147.849 123 147.657 122.808 147.657 122.112V105.888C147.657 105.192 147.849 105 148.545 105H154.665C155.361 105 155.553 105.192 155.553 105.888V107.472C155.553 108.168 155.361 108.36 154.665 108.36H151.401C151.065 108.36 150.969 108.456 150.969 108.792ZM162.503 123H159.863C158.615 123 158.255 122.64 158.111 121.512L156.263 105.888C156.191 105.192 156.455 105 157.151 105H158.903C159.599 105 159.743 105.192 159.791 105.888L160.847 118.2C160.871 118.488 160.967 118.56 161.183 118.56C161.399 118.56 161.495 118.488 161.519 118.2L162.575 105.888C162.623 105.192 162.767 105 163.463 105H165.215C165.911 105 166.175 105.192 166.103 105.888L164.255 121.512C164.111 122.64 163.751 123 162.503 123ZM170.539 108.792V111.48C170.539 111.792 170.635 111.912 170.971 111.912H173.947C174.643 111.912 174.835 112.104 174.835 112.8V114.384C174.835 115.08 174.643 115.272 173.995 115.272H170.971C170.635 115.272 170.539 115.368 170.539 115.704V119.208C170.539 119.52 170.635 119.64 170.971 119.64H174.235C174.931 119.64 175.123 119.832 175.123 120.528V122.112C175.123 122.808 174.931 123 174.235 123H168.115C167.419 123 167.227 122.808 167.227 122.112V105.888C167.227 105.192 167.419 105 168.115 105H174.235C174.931 105 175.123 105.192 175.123 105.888V107.472C175.123 108.168 174.931 108.36 174.235 108.36H170.971C170.635 108.36 170.539 108.456 170.539 108.792ZM187.69 108.36H186.202C185.866 108.36 185.77 108.456 185.77 108.792V122.112C185.77 122.808 185.578 123 184.882 123H183.346C182.65 123 182.458 122.808 182.458 122.112V108.792C182.458 108.456 182.362 108.36 182.026 108.36H180.538C179.842 108.36 179.65 108.168 179.65 107.472V105.888C179.65 105.192 179.842 105 180.538 105H187.69C188.386 105 188.578 105.192 188.578 105.888V107.472C188.578 108.168 188.386 108.36 187.69 108.36ZM195.426 122.112V115.632C195.426 115.296 195.33 115.2 194.994 115.2H193.026C192.69 115.2 192.594 115.296 192.594 115.632V122.112C192.594 122.808 192.402 123 191.706 123H190.17C189.474 123 189.282 122.808 189.282 122.112V105.888C189.282 105.192 189.474 105 190.17 105H191.706C192.402 105 192.594 105.192 192.594 105.888V111.408C192.594 111.72 192.69 111.84 193.026 111.84H194.994C195.33 111.84 195.426 111.72 195.426 111.408V105.888C195.426 105.192 195.618 105 196.314 105H197.85C198.546 105 198.738 105.192 198.738 105.888V122.112C198.738 122.808 198.546 123 197.85 123H196.314C195.618 123 195.426 122.808 195.426 122.112ZM203.528 105H206.552C207.632 105 207.968 105.36 208.088 106.248L210.2 122.112C210.296 122.808 210.104 123 209.408 123H207.752C207.032 123 206.864 122.832 206.768 122.112L206.456 119.496C206.432 119.256 206.36 119.184 206.072 119.184H204.008C203.72 119.184 203.648 119.256 203.624 119.496L203.312 122.112C203.216 122.832 203.048 123 202.328 123H200.672C199.976 123 199.784 122.808 199.88 122.112L201.992 106.248C202.112 105.36 202.448 105 203.528 105ZM205.472 109.896C205.448 109.608 205.304 109.56 205.04 109.56C204.776 109.56 204.632 109.608 204.608 109.896L204.056 115.488C204.032 115.776 204.104 115.848 204.416 115.848H205.664C205.976 115.848 206.048 115.776 206.024 115.488L205.472 109.896ZM217.573 108.36H216.085C215.749 108.36 215.653 108.456 215.653 108.792V122.112C215.653 122.808 215.461 123 214.765 123H213.229C212.533 123 212.341 122.808 212.341 122.112V108.792C212.341 108.456 212.245 108.36 211.909 108.36H210.421C209.725 108.36 209.533 108.168 209.533 107.472V105.888C209.533 105.192 209.725 105 210.421 105H217.573C218.269 105 218.461 105.192 218.461 105.888V107.472C218.461 108.168 218.269 108.36 217.573 108.36ZM227.197 111.408L230.269 114.192C231.877 115.632 232.237 116.496 232.237 118.104V118.536C232.237 121.56 231.085 123.24 227.605 123.24C224.125 123.24 222.973 121.824 222.973 117.96V117.48C222.973 116.784 223.165 116.592 223.861 116.592H225.493C226.189 116.592 226.381 116.784 226.381 117.48V118.536C226.381 119.496 226.765 119.88 227.605 119.88C228.445 119.88 228.829 119.52 228.829 118.656V118.2C228.829 117.528 228.685 117.192 227.797 116.4L224.917 113.832C223.309 112.416 222.973 111.6 222.973 109.992V109.464C222.973 106.44 224.125 104.76 227.605 104.76C231.085 104.76 232.237 106.176 232.237 110.04V110.52C232.237 111.216 232.045 111.408 231.349 111.408H229.717C229.021 111.408 228.829 111.216 228.829 110.52V109.464C228.829 108.504 228.445 108.12 227.605 108.12C226.765 108.12 226.381 108.48 226.381 109.344V109.752C226.381 110.448 226.525 110.784 227.197 111.408ZM242.814 117.72C242.814 121.776 241.662 123.24 238.182 123.24C234.702 123.24 233.55 121.776 233.55 117.72V110.28C233.55 106.248 234.702 104.76 238.182 104.76C241.662 104.76 242.814 106.248 242.814 110.28V117.72ZM236.958 118.536C236.958 119.496 237.342 119.88 238.182 119.88C239.022 119.88 239.406 119.496 239.406 118.536V109.584C239.406 108.528 239.022 108.12 238.182 108.12C237.342 108.12 236.958 108.528 236.958 109.584V118.536ZM250.927 115.656C250.975 115.848 251.047 115.896 251.167 115.896C251.287 115.896 251.359 115.848 251.407 115.656L253.471 105.624C253.567 105.12 253.783 105 254.383 105H256.711C257.407 105 257.599 105.192 257.599 105.888V122.112C257.599 122.808 257.407 123 256.711 123H255.607C254.911 123 254.719 122.808 254.719 122.112V114.336C254.719 114.12 254.671 114.072 254.527 114.072C254.431 114.072 254.335 114.12 254.311 114.288L252.607 122.208C252.487 122.784 252.223 123 251.527 123H250.879C250.159 123 249.895 122.784 249.775 122.208L248.047 114.288C247.999 114.12 247.951 114.072 247.831 114.072C247.687 114.072 247.639 114.12 247.639 114.336V122.112C247.639 122.808 247.447 123 246.751 123H245.647C244.951 123 244.759 122.808 244.759 122.112V105.888C244.759 105.192 244.951 105 245.647 105H247.639C248.479 105 248.791 105.192 248.959 106.032L250.927 115.656ZM263.094 108.792V111.48C263.094 111.792 263.19 111.912 263.526 111.912H266.502C267.198 111.912 267.39 112.104 267.39 112.8V114.384C267.39 115.08 267.198 115.272 266.55 115.272H263.526C263.19 115.272 263.094 115.368 263.094 115.704V119.208C263.094 119.52 263.19 119.64 263.526 119.64H266.79C267.486 119.64 267.678 119.832 267.678 120.528V122.112C267.678 122.808 267.486 123 266.79 123H260.67C259.974 123 259.782 122.808 259.782 122.112V105.888C259.782 105.192 259.974 105 260.67 105H266.79C267.486 105 267.678 105.192 267.678 105.888V107.472C267.678 108.168 267.486 108.36 266.79 108.36H263.526C263.19 108.36 263.094 108.456 263.094 108.792ZM275.348 122.112V115.632C275.348 115.296 275.252 115.2 274.916 115.2H272.948C272.612 115.2 272.516 115.296 272.516 115.632V122.112C272.516 122.808 272.324 123 271.628 123H270.092C269.396 123 269.204 122.808 269.204 122.112V105.888C269.204 105.192 269.396 105 270.092 105H271.628C272.324 105 272.516 105.192 272.516 105.888V111.408C272.516 111.72 272.612 111.84 272.948 111.84H274.916C275.252 111.84 275.348 111.72 275.348 111.408V105.888C275.348 105.192 275.54 105 276.236 105H277.772C278.468 105 278.66 105.192 278.66 105.888V122.112C278.66 122.808 278.468 123 277.772 123H276.236C275.54 123 275.348 122.808 275.348 122.112ZM289.876 117.72C289.876 121.776 288.724 123.24 285.244 123.24C281.764 123.24 280.612 121.776 280.612 117.72V110.28C280.612 106.248 281.764 104.76 285.244 104.76C288.724 104.76 289.876 106.248 289.876 110.28V117.72ZM284.02 118.536C284.02 119.496 284.404 119.88 285.244 119.88C286.084 119.88 286.468 119.496 286.468 118.536V109.584C286.468 108.528 286.084 108.12 285.244 108.12C284.404 108.12 284.02 108.528 284.02 109.584V118.536ZM298.28 105H299.24C299.936 105 300.176 105.216 300.248 105.888L301.64 118.416C301.664 118.632 301.712 118.68 301.88 118.68C302.072 118.68 302.144 118.632 302.168 118.416L302.936 105.888C302.984 105.192 303.128 105 303.824 105H305.6C306.296 105 306.56 105.192 306.488 105.888L305.12 121.464C305.024 122.616 304.616 123 303.368 123H301.328C300.08 123 299.72 122.616 299.576 121.464L298.952 116.496C298.928 116.304 298.88 116.256 298.76 116.256C298.64 116.256 298.592 116.304 298.568 116.496L297.968 121.464C297.824 122.616 297.464 123 296.216 123H294.152C292.904 123 292.496 122.616 292.4 121.464L291.032 105.888C290.96 105.192 291.224 105 291.92 105H293.696C294.392 105 294.536 105.192 294.584 105.888L295.328 118.416C295.352 118.632 295.424 118.68 295.616 118.68C295.784 118.68 295.832 118.632 295.856 118.416L297.272 105.888C297.344 105.216 297.584 105 298.28 105ZM318.917 108.36H317.429C317.093 108.36 316.997 108.456 316.997 108.792V122.112C316.997 122.808 316.805 123 316.109 123H314.573C313.877 123 313.685 122.808 313.685 122.112V108.792C313.685 108.456 313.589 108.36 313.253 108.36H311.765C311.069 108.36 310.877 108.168 310.877 107.472V105.888C310.877 105.192 311.069 105 311.765 105H318.917C319.613 105 319.805 105.192 319.805 105.888V107.472C319.805 108.168 319.613 108.36 318.917 108.36ZM326.653 122.112V115.632C326.653 115.296 326.557 115.2 326.221 115.2H324.253C323.917 115.2 323.821 115.296 323.821 115.632V122.112C323.821 122.808 323.629 123 322.933 123H321.397C320.701 123 320.509 122.808 320.509 122.112V105.888C320.509 105.192 320.701 105 321.397 105H322.933C323.629 105 323.821 105.192 323.821 105.888V111.408C323.821 111.72 323.917 111.84 324.253 111.84H326.221C326.557 111.84 326.653 111.72 326.653 111.408V105.888C326.653 105.192 326.845 105 327.541 105H329.077C329.773 105 329.965 105.192 329.965 105.888V122.112C329.965 122.808 329.773 123 329.077 123H327.541C326.845 123 326.653 122.808 326.653 122.112ZM335.469 105.888V122.112C335.469 122.808 335.277 123 334.581 123H333.045C332.349 123 332.157 122.808 332.157 122.112V105.888C332.157 105.192 332.349 105 333.045 105H334.581C335.277 105 335.469 105.192 335.469 105.888ZM341.244 111.408L344.316 114.192C345.924 115.632 346.284 116.496 346.284 118.104V118.536C346.284 121.56 345.132 123.24 341.652 123.24C338.172 123.24 337.02 121.824 337.02 117.96V117.48C337.02 116.784 337.212 116.592 337.908 116.592H339.54C340.236 116.592 340.428 116.784 340.428 117.48V118.536C340.428 119.496 340.812 119.88 341.652 119.88C342.492 119.88 342.876 119.52 342.876 118.656V118.2C342.876 117.528 342.732 117.192 341.844 116.4L338.964 113.832C337.356 112.416 337.02 111.6 337.02 109.992V109.464C337.02 106.44 338.172 104.76 341.652 104.76C345.132 104.76 346.284 106.176 346.284 110.04V110.52C346.284 111.216 346.092 111.408 345.396 111.408H343.764C343.068 111.408 342.876 111.216 342.876 110.52V109.464C342.876 108.504 342.492 108.12 341.652 108.12C340.812 108.12 340.428 108.48 340.428 109.344V109.752C340.428 110.448 340.572 110.784 341.244 111.408ZM355.11 105.888V122.112C355.11 122.808 354.918 123 354.222 123H352.686C351.99 123 351.798 122.808 351.798 122.112V105.888C351.798 105.192 351.99 105 352.686 105H354.222C354.918 105 355.11 105.192 355.11 105.888ZM360.885 111.408L363.957 114.192C365.565 115.632 365.925 116.496 365.925 118.104V118.536C365.925 121.56 364.773 123.24 361.293 123.24C357.813 123.24 356.661 121.824 356.661 117.96V117.48C356.661 116.784 356.853 116.592 357.549 116.592H359.181C359.877 116.592 360.069 116.784 360.069 117.48V118.536C360.069 119.496 360.453 119.88 361.293 119.88C362.133 119.88 362.517 119.52 362.517 118.656V118.2C362.517 117.528 362.373 117.192 361.485 116.4L358.605 113.832C356.997 112.416 356.661 111.6 356.661 109.992V109.464C356.661 106.44 357.813 104.76 361.293 104.76C364.773 104.76 365.925 106.176 365.925 110.04V110.52C365.925 111.216 365.733 111.408 365.037 111.408H363.405C362.709 111.408 362.517 111.216 362.517 110.52V109.464C362.517 108.504 362.133 108.12 361.293 108.12C360.453 108.12 360.069 108.48 360.069 109.344V109.752C360.069 110.448 360.213 110.784 360.885 111.408ZM378.014 113.712V105.888C378.014 105.192 378.206 105 378.902 105H380.246C380.942 105 381.134 105.192 381.134 105.888V122.112C381.134 122.808 380.942 123 380.246 123H379.142C378.398 123 378.182 122.832 377.942 122.184L374.942 114.24C374.87 114.072 374.798 114.024 374.702 114.024C374.582 114.024 374.534 114.072 374.534 114.288V122.112C374.534 122.808 374.342 123 373.646 123H372.326C371.63 123 371.438 122.808 371.438 122.112V105.888C371.438 105.192 371.63 105 372.326 105H373.406C374.102 105 374.342 105.072 374.558 105.624L377.606 113.76C377.678 113.928 377.75 113.976 377.846 113.976C377.966 113.976 378.014 113.928 378.014 113.712ZM386.633 108.792V111.48C386.633 111.792 386.729 111.912 387.065 111.912H390.041C390.737 111.912 390.929 112.104 390.929 112.8V114.384C390.929 115.08 390.737 115.272 390.089 115.272H387.065C386.729 115.272 386.633 115.368 386.633 115.704V119.208C386.633 119.52 386.729 119.64 387.065 119.64H390.329C391.025 119.64 391.217 119.832 391.217 120.528V122.112C391.217 122.808 391.025 123 390.329 123H384.209C383.513 123 383.321 122.808 383.321 122.112V105.888C383.321 105.192 383.513 105 384.209 105H390.329C391.025 105 391.217 105.192 391.217 105.888V107.472C391.217 108.168 391.025 108.36 390.329 108.36H387.065C386.729 108.36 386.633 108.456 386.633 108.792ZM399.319 105H400.279C400.975 105 401.215 105.216 401.287 105.888L402.679 118.416C402.703 118.632 402.751 118.68 402.919 118.68C403.111 118.68 403.183 118.632 403.207 118.416L403.975 105.888C404.023 105.192 404.167 105 404.863 105H406.639C407.335 105 407.599 105.192 407.527 105.888L406.159 121.464C406.063 122.616 405.655 123 404.407 123H402.367C401.119 123 400.759 122.616 400.615 121.464L399.991 116.496C399.967 116.304 399.919 116.256 399.799 116.256C399.679 116.256 399.631 116.304 399.607 116.496L399.007 121.464C398.863 122.616 398.503 123 397.255 123H395.191C393.943 123 393.535 122.616 393.439 121.464L392.071 105.888C391.999 105.192 392.263 105 392.959 105H394.735C395.431 105 395.575 105.192 395.623 105.888L396.367 118.416C396.391 118.632 396.463 118.68 396.655 118.68C396.823 118.68 396.871 118.632 396.895 118.416L398.311 105.888C398.383 105.216 398.623 105 399.319 105ZM408.932 123.144C408.98 123.024 408.956 122.976 408.836 122.952C407.996 122.856 407.756 122.376 407.756 121.536V120.912C407.756 119.952 408.26 119.448 409.22 119.448H409.844C410.828 119.448 411.308 119.952 411.308 120.912V121.656C411.308 122.232 411.236 122.592 410.948 123.12L410.06 124.776C409.892 125.088 409.82 125.136 409.484 125.136H408.692C408.452 125.136 408.356 125.064 408.356 124.896C408.356 124.824 408.38 124.752 408.428 124.608L408.932 123.144ZM419.762 105H422.786C423.866 105 424.202 105.36 424.322 106.248L426.434 122.112C426.53 122.808 426.338 123 425.642 123H423.986C423.266 123 423.098 122.832 423.002 122.112L422.69 119.496C422.666 119.256 422.594 119.184 422.306 119.184H420.242C419.954 119.184 419.882 119.256 419.858 119.496L419.546 122.112C419.45 122.832 419.282 123 418.562 123H416.906C416.21 123 416.018 122.808 416.114 122.112L418.226 106.248C418.346 105.36 418.682 105 419.762 105ZM421.706 109.896C421.682 109.608 421.538 109.56 421.274 109.56C421.01 109.56 420.866 109.608 420.842 109.896L420.29 115.488C420.266 115.776 420.338 115.848 420.65 115.848H421.898C422.21 115.848 422.282 115.776 422.258 115.488L421.706 109.896ZM434.147 113.712V105.888C434.147 105.192 434.339 105 435.035 105H436.379C437.075 105 437.267 105.192 437.267 105.888V122.112C437.267 122.808 437.075 123 436.379 123H435.275C434.531 123 434.315 122.832 434.075 122.184L431.075 114.24C431.003 114.072 430.931 114.024 430.835 114.024C430.715 114.024 430.667 114.072 430.667 114.288V122.112C430.667 122.808 430.475 123 429.779 123H428.459C427.763 123 427.571 122.808 427.571 122.112V105.888C427.571 105.192 427.763 105 428.459 105H429.539C430.235 105 430.475 105.072 430.691 105.624L433.739 113.76C433.811 113.928 433.883 113.976 433.979 113.976C434.099 113.976 434.147 113.928 434.147 113.712ZM443.27 105C447.878 105 448.814 106.68 448.814 110.76V117.24C448.814 121.32 447.878 123 443.27 123H440.342C439.646 123 439.454 122.808 439.454 122.112V105.888C439.454 105.192 439.646 105 440.342 105H443.27ZM443.198 108.36C442.862 108.36 442.766 108.456 442.766 108.792V119.208C442.766 119.52 442.862 119.64 443.198 119.64H443.462C444.806 119.64 445.406 119.016 445.406 117.456V110.544C445.406 108.984 444.806 108.36 443.462 108.36H443.198ZM460.692 122.112V115.632C460.692 115.296 460.596 115.2 460.26 115.2H458.292C457.956 115.2 457.86 115.296 457.86 115.632V122.112C457.86 122.808 457.668 123 456.972 123H455.436C454.74 123 454.548 122.808 454.548 122.112V105.888C454.548 105.192 454.74 105 455.436 105H456.972C457.668 105 457.86 105.192 457.86 105.888V111.408C457.86 111.72 457.956 111.84 458.292 111.84H460.26C460.596 111.84 460.692 111.72 460.692 111.408V105.888C460.692 105.192 460.884 105 461.58 105H463.116C463.812 105 464.004 105.192 464.004 105.888V122.112C464.004 122.808 463.812 123 463.116 123H461.58C460.884 123 460.692 122.808 460.692 122.112ZM469.508 105.888V122.112C469.508 122.808 469.316 123 468.62 123H467.084C466.388 123 466.196 122.808 466.196 122.112V105.888C466.196 105.192 466.388 105 467.084 105H468.62C469.316 105 469.508 105.192 469.508 105.888ZM475.736 116.832H475.424C475.088 116.832 474.992 116.928 474.992 117.264V122.112C474.992 122.808 474.8 123 474.104 123H472.568C471.872 123 471.68 122.808 471.68 122.112V105.888C471.68 105.192 471.872 105 472.568 105H475.736C479.384 105 481.04 106.32 481.04 109.56V112.272C481.04 115.512 479.384 116.832 475.736 116.832ZM474.992 108.792V113.04C474.992 113.376 475.088 113.472 475.424 113.472H475.928C477.104 113.472 477.632 112.992 477.632 111.768V110.064C477.632 108.84 477.104 108.36 475.928 108.36H475.424C475.088 108.36 474.992 108.456 474.992 108.792ZM480.628 123.144C480.676 123.024 480.652 122.976 480.532 122.952C479.692 122.856 479.452 122.376 479.452 121.536V120.912C479.452 119.952 479.956 119.448 480.916 119.448H481.54C482.524 119.448 483.004 119.952 483.004 120.912V121.656C483.004 122.232 482.932 122.592 482.644 123.12L481.756 124.776C481.588 125.088 481.516 125.136 481.18 125.136H480.388C480.148 125.136 480.052 125.064 480.052 124.896C480.052 124.824 480.076 124.752 480.124 124.608L480.628 123.144ZM103.356 137H106.38C107.46 137 107.796 137.36 107.916 138.248L110.028 154.112C110.124 154.808 109.932 155 109.236 155H107.58C106.86 155 106.692 154.832 106.596 154.112L106.284 151.496C106.26 151.256 106.188 151.184 105.9 151.184H103.836C103.548 151.184 103.476 151.256 103.452 151.496L103.14 154.112C103.044 154.832 102.876 155 102.156 155H100.5C99.8042 155 99.6122 154.808 99.7082 154.112L101.82 138.248C101.94 137.36 102.276 137 103.356 137ZM105.3 141.896C105.276 141.608 105.132 141.56 104.868 141.56C104.604 141.56 104.46 141.608 104.436 141.896L103.884 147.488C103.86 147.776 103.932 147.848 104.244 147.848H105.492C105.804 147.848 105.876 147.776 105.852 147.488L105.3 141.896ZM117.741 145.712V137.888C117.741 137.192 117.933 137 118.629 137H119.973C120.669 137 120.861 137.192 120.861 137.888V154.112C120.861 154.808 120.669 155 119.973 155H118.869C118.125 155 117.909 154.832 117.669 154.184L114.669 146.24C114.597 146.072 114.525 146.024 114.429 146.024C114.309 146.024 114.261 146.072 114.261 146.288V154.112C114.261 154.808 114.069 155 113.373 155H112.053C111.357 155 111.165 154.808 111.165 154.112V137.888C111.165 137.192 111.357 137 112.053 137H113.133C113.829 137 114.069 137.072 114.285 137.624L117.333 145.76C117.405 145.928 117.477 145.976 117.573 145.976C117.693 145.976 117.741 145.928 117.741 145.712ZM126.864 137C131.472 137 132.408 138.68 132.408 142.76V149.24C132.408 153.32 131.472 155 126.864 155H123.936C123.24 155 123.048 154.808 123.048 154.112V137.888C123.048 137.192 123.24 137 123.936 137H126.864ZM126.792 140.36C126.456 140.36 126.36 140.456 126.36 140.792V151.208C126.36 151.52 126.456 151.64 126.792 151.64H127.056C128.4 151.64 129 151.016 129 149.456V142.544C129 140.984 128.4 140.36 127.056 140.36H126.792ZM140.973 137H143.997C145.077 137 145.413 137.36 145.533 138.248L147.645 154.112C147.741 154.808 147.549 155 146.853 155H145.197C144.477 155 144.309 154.832 144.213 154.112L143.901 151.496C143.877 151.256 143.805 151.184 143.517 151.184H141.453C141.165 151.184 141.093 151.256 141.069 151.496L140.757 154.112C140.661 154.832 140.493 155 139.773 155H138.117C137.421 155 137.229 154.808 137.325 154.112L139.437 138.248C139.557 137.36 139.893 137 140.973 137ZM142.917 141.896C142.893 141.608 142.749 141.56 142.485 141.56C142.221 141.56 142.077 141.608 142.053 141.896L141.501 147.488C141.477 147.776 141.549 147.848 141.861 147.848H143.109C143.421 147.848 143.493 147.776 143.469 147.488L142.917 141.896ZM155.358 145.712V137.888C155.358 137.192 155.55 137 156.246 137H157.59C158.286 137 158.478 137.192 158.478 137.888V154.112C158.478 154.808 158.286 155 157.59 155H156.486C155.742 155 155.526 154.832 155.286 154.184L152.286 146.24C152.214 146.072 152.142 146.024 152.046 146.024C151.926 146.024 151.878 146.072 151.878 146.288V154.112C151.878 154.808 151.686 155 150.99 155H149.67C148.974 155 148.782 154.808 148.782 154.112V137.888C148.782 137.192 148.974 137 149.67 137H150.75C151.446 137 151.686 137.072 151.902 137.624L154.95 145.76C155.022 145.928 155.094 145.976 155.19 145.976C155.31 145.976 155.358 145.928 155.358 145.712ZM167.341 137H170.365C171.445 137 171.781 137.36 171.901 138.248L174.013 154.112C174.109 154.808 173.917 155 173.221 155H171.565C170.845 155 170.677 154.832 170.581 154.112L170.269 151.496C170.245 151.256 170.173 151.184 169.885 151.184H167.821C167.533 151.184 167.461 151.256 167.437 151.496L167.125 154.112C167.029 154.832 166.861 155 166.141 155H164.485C163.789 155 163.597 154.808 163.693 154.112L165.805 138.248C165.925 137.36 166.261 137 167.341 137ZM169.285 141.896C169.261 141.608 169.117 141.56 168.853 141.56C168.589 141.56 168.445 141.608 168.421 141.896L167.869 147.488C167.845 147.776 167.917 147.848 168.229 147.848H169.477C169.789 147.848 169.861 147.776 169.837 147.488L169.285 141.896ZM181.385 140.36H179.897C179.561 140.36 179.465 140.456 179.465 140.792V154.112C179.465 154.808 179.273 155 178.577 155H177.041C176.345 155 176.153 154.808 176.153 154.112V140.792C176.153 140.456 176.057 140.36 175.721 140.36H174.233C173.537 140.36 173.345 140.168 173.345 139.472V137.888C173.345 137.192 173.537 137 174.233 137H181.385C182.081 137 182.273 137.192 182.273 137.888V139.472C182.273 140.168 182.081 140.36 181.385 140.36ZM191.018 140.36H189.53C189.194 140.36 189.098 140.456 189.098 140.792V154.112C189.098 154.808 188.906 155 188.21 155H186.674C185.978 155 185.786 154.808 185.786 154.112V140.792C185.786 140.456 185.69 140.36 185.354 140.36H183.866C183.17 140.36 182.978 140.168 182.978 139.472V137.888C182.978 137.192 183.17 137 183.866 137H191.018C191.714 137 191.906 137.192 191.906 137.888V139.472C191.906 140.168 191.714 140.36 191.018 140.36ZM194.833 137H197.857C198.937 137 199.273 137.36 199.393 138.248L201.505 154.112C201.601 154.808 201.409 155 200.713 155H199.057C198.337 155 198.169 154.832 198.073 154.112L197.761 151.496C197.737 151.256 197.665 151.184 197.377 151.184H195.313C195.025 151.184 194.953 151.256 194.929 151.496L194.617 154.112C194.521 154.832 194.353 155 193.633 155H191.977C191.281 155 191.089 154.808 191.185 154.112L193.297 138.248C193.417 137.36 193.753 137 194.833 137ZM196.777 141.896C196.753 141.608 196.609 141.56 196.345 141.56C196.081 141.56 195.937 141.608 195.913 141.896L195.361 147.488C195.337 147.776 195.409 147.848 195.721 147.848H196.969C197.281 147.848 197.353 147.776 197.329 147.488L196.777 141.896ZM211.617 149.24V149.96C211.617 153.824 210.513 155.24 207.033 155.24C203.553 155.24 202.401 153.824 202.401 149.96V142.04C202.401 138.176 203.553 136.76 207.033 136.76C210.513 136.76 211.617 138.176 211.617 142.04V142.76C211.617 143.456 211.425 143.648 210.729 143.648H209.193C208.497 143.648 208.305 143.456 208.305 142.76V141.464C208.305 140.504 207.897 140.12 207.057 140.12C206.217 140.12 205.809 140.504 205.809 141.464V150.536C205.809 151.496 206.217 151.88 207.057 151.88C207.897 151.88 208.305 151.496 208.305 150.536V149.24C208.305 148.544 208.497 148.352 209.193 148.352H210.729C211.425 148.352 211.617 148.544 211.617 149.24ZM217.988 147.752C217.94 147.56 217.772 147.536 217.676 147.704L216.644 149.6C216.524 149.84 216.5 149.936 216.5 150.224V154.112C216.5 154.808 216.308 155 215.612 155H214.076C213.38 155 213.188 154.808 213.188 154.112V137.888C213.188 137.192 213.38 137 214.076 137H215.564C216.26 137 216.452 137.192 216.452 137.888V143.024C216.452 143.216 216.524 143.264 216.644 143.264C216.74 143.264 216.812 143.24 216.884 143.072L219.356 137.888C219.74 137.096 219.908 137 220.82 137H222.308C223.004 137 223.148 137.36 222.86 137.936L220.076 143.48C219.932 143.744 219.932 143.864 220.028 144.152L223.052 153.992C223.244 154.64 223.028 155 222.38 155H220.916C220.196 155 219.956 154.808 219.764 154.16L217.988 147.752ZM237.212 149.72C237.212 153.776 236.06 155.24 232.58 155.24C229.1 155.24 227.948 153.776 227.948 149.72V142.28C227.948 138.248 229.1 136.76 232.58 136.76C236.06 136.76 237.212 138.248 237.212 142.28V149.72ZM231.356 150.536C231.356 151.496 231.74 151.88 232.58 151.88C233.42 151.88 233.804 151.496 233.804 150.536V141.584C233.804 140.528 233.42 140.12 232.58 140.12C231.74 140.12 231.356 140.528 231.356 141.584V150.536ZM245.733 145.712V137.888C245.733 137.192 245.925 137 246.621 137H247.965C248.661 137 248.853 137.192 248.853 137.888V154.112C248.853 154.808 248.661 155 247.965 155H246.861C246.117 155 245.901 154.832 245.661 154.184L242.661 146.24C242.589 146.072 242.517 146.024 242.421 146.024C242.301 146.024 242.253 146.072 242.253 146.288V154.112C242.253 154.808 242.061 155 241.365 155H240.045C239.349 155 239.157 154.808 239.157 154.112V137.888C239.157 137.192 239.349 137 240.045 137H241.125C241.821 137 242.061 137.072 242.277 137.624L245.325 145.76C245.397 145.928 245.469 145.976 245.565 145.976C245.685 145.976 245.733 145.928 245.733 145.712ZM261.964 140.36H260.476C260.14 140.36 260.044 140.456 260.044 140.792V154.112C260.044 154.808 259.852 155 259.156 155H257.62C256.924 155 256.732 154.808 256.732 154.112V140.792C256.732 140.456 256.636 140.36 256.3 140.36H254.812C254.116 140.36 253.924 140.168 253.924 139.472V137.888C253.924 137.192 254.116 137 254.812 137H261.964C262.66 137 262.852 137.192 262.852 137.888V139.472C262.852 140.168 262.66 140.36 261.964 140.36ZM269.699 154.112V147.632C269.699 147.296 269.603 147.2 269.267 147.2H267.299C266.963 147.2 266.867 147.296 266.867 147.632V154.112C266.867 154.808 266.675 155 265.979 155H264.443C263.747 155 263.555 154.808 263.555 154.112V137.888C263.555 137.192 263.747 137 264.443 137H265.979C266.675 137 266.867 137.192 266.867 137.888V143.408C266.867 143.72 266.963 143.84 267.299 143.84H269.267C269.603 143.84 269.699 143.72 269.699 143.408V137.888C269.699 137.192 269.891 137 270.587 137H272.123C272.819 137 273.011 137.192 273.011 137.888V154.112C273.011 154.808 272.819 155 272.123 155H270.587C269.891 155 269.699 154.808 269.699 154.112ZM278.516 140.792V143.48C278.516 143.792 278.612 143.912 278.948 143.912H281.924C282.62 143.912 282.812 144.104 282.812 144.8V146.384C282.812 147.08 282.62 147.272 281.972 147.272H278.948C278.612 147.272 278.516 147.368 278.516 147.704V151.208C278.516 151.52 278.612 151.64 278.948 151.64H282.212C282.908 151.64 283.1 151.832 283.1 152.528V154.112C283.1 154.808 282.908 155 282.212 155H276.092C275.396 155 275.204 154.808 275.204 154.112V137.888C275.204 137.192 275.396 137 276.092 137H282.212C282.908 137 283.1 137.192 283.1 137.888V139.472C283.1 140.168 282.908 140.36 282.212 140.36H278.948C278.612 140.36 278.516 140.456 278.516 140.792ZM292.643 148.832H292.331C291.995 148.832 291.899 148.928 291.899 149.264V154.112C291.899 154.808 291.707 155 291.011 155H289.475C288.779 155 288.587 154.808 288.587 154.112V137.888C288.587 137.192 288.779 137 289.475 137H292.643C296.291 137 297.947 138.32 297.947 141.56V144.272C297.947 147.512 296.291 148.832 292.643 148.832ZM291.899 140.792V145.04C291.899 145.376 291.995 145.472 292.331 145.472H292.835C294.011 145.472 294.539 144.992 294.539 143.768V142.064C294.539 140.84 294.011 140.36 292.835 140.36H292.331C291.995 140.36 291.899 140.456 291.899 140.792ZM308.111 149.72C308.111 153.776 306.959 155.24 303.479 155.24C299.999 155.24 298.847 153.776 298.847 149.72V142.28C298.847 138.248 299.999 136.76 303.479 136.76C306.959 136.76 308.111 138.248 308.111 142.28V149.72ZM302.255 150.536C302.255 151.496 302.639 151.88 303.479 151.88C304.319 151.88 304.703 151.496 304.703 150.536V141.584C304.703 140.528 304.319 140.12 303.479 140.12C302.639 140.12 302.255 140.528 302.255 141.584V150.536ZM316.514 137H317.474C318.17 137 318.41 137.216 318.482 137.888L319.874 150.416C319.898 150.632 319.946 150.68 320.114 150.68C320.306 150.68 320.378 150.632 320.402 150.416L321.17 137.888C321.218 137.192 321.362 137 322.058 137H323.834C324.53 137 324.794 137.192 324.722 137.888L323.354 153.464C323.258 154.616 322.85 155 321.602 155H319.562C318.314 155 317.954 154.616 317.81 153.464L317.186 148.496C317.162 148.304 317.114 148.256 316.994 148.256C316.874 148.256 316.826 148.304 316.802 148.496L316.202 153.464C316.058 154.616 315.698 155 314.45 155H312.386C311.138 155 310.73 154.616 310.634 153.464L309.266 137.888C309.194 137.192 309.458 137 310.154 137H311.93C312.626 137 312.77 137.192 312.818 137.888L313.562 150.416C313.586 150.632 313.658 150.68 313.85 150.68C314.018 150.68 314.066 150.632 314.09 150.416L315.506 137.888C315.578 137.216 315.818 137 316.514 137ZM329.422 140.792V143.48C329.422 143.792 329.518 143.912 329.854 143.912H332.83C333.526 143.912 333.718 144.104 333.718 144.8V146.384C333.718 147.08 333.526 147.272 332.878 147.272H329.854C329.518 147.272 329.422 147.368 329.422 147.704V151.208C329.422 151.52 329.518 151.64 329.854 151.64H333.118C333.814 151.64 334.006 151.832 334.006 152.528V154.112C334.006 154.808 333.814 155 333.118 155H326.998C326.302 155 326.11 154.808 326.11 154.112V137.888C326.11 137.192 326.302 137 326.998 137H333.118C333.814 137 334.006 137.192 334.006 137.888V139.472C334.006 140.168 333.814 140.36 333.118 140.36H329.854C329.518 140.36 329.422 140.456 329.422 140.792ZM341.868 154.328L339.948 148.496C339.828 148.16 339.732 148.064 339.372 148.064H339.276C338.94 148.064 338.844 148.16 338.844 148.496V154.112C338.844 154.808 338.652 155 337.956 155H336.42C335.724 155 335.532 154.808 335.532 154.112V137.888C335.532 137.192 335.724 137 336.42 137H339.588C343.236 137 344.892 138.248 344.892 141.32V143.048C344.892 145.304 344.532 146.168 343.26 147.248C343.116 147.344 343.092 147.392 343.092 147.512C343.092 147.584 343.116 147.656 343.164 147.824L345.276 154.088C345.492 154.712 345.252 155 344.628 155H342.876C342.204 155 342.06 154.904 341.868 154.328ZM338.844 140.672V144.368C338.844 144.704 338.94 144.8 339.276 144.8H339.78C340.908 144.8 341.484 144.296 341.484 143.144V141.824C341.484 140.696 340.956 140.24 339.78 140.24H339.276C338.94 140.24 338.844 140.336 338.844 140.672ZM350.221 143.408L353.293 146.192C354.901 147.632 355.261 148.496 355.261 150.104V150.536C355.261 153.56 354.109 155.24 350.629 155.24C347.149 155.24 345.997 153.824 345.997 149.96V149.48C345.997 148.784 346.189 148.592 346.885 148.592H348.517C349.213 148.592 349.405 148.784 349.405 149.48V150.536C349.405 151.496 349.789 151.88 350.629 151.88C351.469 151.88 351.853 151.52 351.853 150.656V150.2C351.853 149.528 351.709 149.192 350.821 148.4L347.941 145.832C346.333 144.416 345.997 143.6 345.997 141.992V141.464C345.997 138.44 347.149 136.76 350.629 136.76C354.109 136.76 355.261 138.176 355.261 142.04V142.52C355.261 143.216 355.069 143.408 354.373 143.408H352.741C352.045 143.408 351.853 143.216 351.853 142.52V141.464C351.853 140.504 351.469 140.12 350.629 140.12C349.789 140.12 349.405 140.48 349.405 141.344V141.752C349.405 142.448 349.549 142.784 350.221 143.408ZM369.798 149.72C369.798 153.776 368.646 155.24 365.166 155.24C361.686 155.24 360.534 153.776 360.534 149.72V142.28C360.534 138.248 361.686 136.76 365.166 136.76C368.646 136.76 369.798 138.248 369.798 142.28V149.72ZM363.942 150.536C363.942 151.496 364.326 151.88 365.166 151.88C366.006 151.88 366.39 151.496 366.39 150.536V141.584C366.39 140.528 366.006 140.12 365.166 140.12C364.326 140.12 363.942 140.528 363.942 141.584V150.536ZM375.055 148.136V154.112C375.055 154.808 374.863 155 374.167 155H372.631C371.935 155 371.743 154.808 371.743 154.112V137.888C371.743 137.192 371.935 137 372.631 137H379.087C379.783 137 379.975 137.192 379.975 137.888V139.472C379.975 140.168 379.783 140.36 379.087 140.36H375.487C375.151 140.36 375.055 140.456 375.055 140.792V143.912C375.055 144.224 375.151 144.344 375.487 144.344H378.079C378.775 144.344 378.967 144.536 378.967 145.232V146.816C378.967 147.512 378.775 147.704 378.127 147.704H375.487C375.151 147.704 375.055 147.8 375.055 148.136ZM388.752 143.408L391.824 146.192C393.432 147.632 393.792 148.496 393.792 150.104V150.536C393.792 153.56 392.64 155.24 389.16 155.24C385.68 155.24 384.528 153.824 384.528 149.96V149.48C384.528 148.784 384.72 148.592 385.416 148.592H387.048C387.744 148.592 387.936 148.784 387.936 149.48V150.536C387.936 151.496 388.32 151.88 389.16 151.88C390 151.88 390.384 151.52 390.384 150.656V150.2C390.384 149.528 390.24 149.192 389.352 148.4L386.472 145.832C384.864 144.416 384.528 143.6 384.528 141.992V141.464C384.528 138.44 385.68 136.76 389.16 136.76C392.64 136.76 393.792 138.176 393.792 142.04V142.52C393.792 143.216 393.6 143.408 392.904 143.408H391.272C390.576 143.408 390.384 143.216 390.384 142.52V141.464C390.384 140.504 390 140.12 389.16 140.12C388.32 140.12 387.936 140.48 387.936 141.344V141.752C387.936 142.448 388.08 142.784 388.752 143.408ZM404.369 149.72C404.369 153.776 403.217 155.24 399.737 155.24C396.257 155.24 395.104 153.776 395.104 149.72V142.28C395.104 138.248 396.257 136.76 399.737 136.76C403.217 136.76 404.369 138.248 404.369 142.28V149.72ZM398.513 150.536C398.513 151.496 398.897 151.88 399.737 151.88C400.577 151.88 400.961 151.496 400.961 150.536V141.584C400.961 140.528 400.577 140.12 399.737 140.12C398.897 140.12 398.513 140.528 398.513 141.584V150.536ZM415.172 149.24V149.96C415.172 153.824 414.068 155.24 410.588 155.24C407.108 155.24 405.956 153.824 405.956 149.96V142.04C405.956 138.176 407.108 136.76 410.588 136.76C414.068 136.76 415.172 138.176 415.172 142.04V142.76C415.172 143.456 414.98 143.648 414.284 143.648H412.748C412.052 143.648 411.86 143.456 411.86 142.76V141.464C411.86 140.504 411.452 140.12 410.612 140.12C409.772 140.12 409.364 140.504 409.364 141.464V150.536C409.364 151.496 409.772 151.88 410.612 151.88C411.452 151.88 411.86 151.496 411.86 150.536V149.24C411.86 148.544 412.052 148.352 412.748 148.352H414.284C414.98 148.352 415.172 148.544 415.172 149.24ZM420.055 137.888V154.112C420.055 154.808 419.863 155 419.167 155H417.631C416.935 155 416.743 154.808 416.743 154.112V137.888C416.743 137.192 416.935 137 417.631 137H419.167C419.863 137 420.055 137.192 420.055 137.888ZM425.539 140.792V143.48C425.539 143.792 425.635 143.912 425.971 143.912H428.947C429.643 143.912 429.835 144.104 429.835 144.8V146.384C429.835 147.08 429.643 147.272 428.995 147.272H425.971C425.635 147.272 425.539 147.368 425.539 147.704V151.208C425.539 151.52 425.635 151.64 425.971 151.64H429.235C429.931 151.64 430.123 151.832 430.123 152.528V154.112C430.123 154.808 429.931 155 429.235 155H423.115C422.419 155 422.227 154.808 422.227 154.112V137.888C422.227 137.192 422.419 137 423.115 137H429.235C429.931 137 430.123 137.192 430.123 137.888V139.472C430.123 140.168 429.931 140.36 429.235 140.36H425.971C425.635 140.36 425.539 140.456 425.539 140.792ZM438.846 140.36H437.358C437.022 140.36 436.926 140.456 436.926 140.792V154.112C436.926 154.808 436.734 155 436.038 155H434.502C433.806 155 433.614 154.808 433.614 154.112V140.792C433.614 140.456 433.518 140.36 433.182 140.36H431.694C430.998 140.36 430.806 140.168 430.806 139.472V137.888C430.806 137.192 430.998 137 431.694 137H438.846C439.542 137 439.734 137.192 439.734 137.888V139.472C439.734 140.168 439.542 140.36 438.846 140.36ZM445.311 143.6C445.455 143.6 445.503 143.552 445.551 143.312L446.607 137.888C446.751 137.192 446.991 137 447.639 137H449.487C450.183 137 450.375 137.288 450.183 137.888L447.087 148.184C446.967 148.616 446.943 148.76 446.943 149.456V154.112C446.943 154.808 446.751 155 446.055 155H444.567C443.871 155 443.679 154.808 443.679 154.112V149.456C443.679 148.76 443.655 148.616 443.535 148.184L440.439 137.888C440.247 137.288 440.439 137 441.135 137H442.983C443.631 137 443.871 137.192 444.015 137.888L445.071 143.312C445.119 143.552 445.167 143.6 445.311 143.6ZM452.016 152.912V153.536C452.016 154.52 451.536 155 450.552 155H449.928C448.968 155 448.464 154.52 448.464 153.536V152.912C448.464 151.952 448.968 151.448 449.928 151.448H450.552C451.536 151.448 452.016 151.952 452.016 152.912Z" fill="black"/>
</svg>
