<svg width="94" height="92" viewBox="0 0 94 92" fill="none" xmlns="http://www.w3.org/2000/svg">
<rect x="2" y="2" width="89.2537" height="88" rx="44" fill="#D9D3C3" stroke="black" stroke-width="4"/>
<path d="M57.4286 67.1032L44.9252 48.9369L43.1447 46.351L28.636 25.2712H34.877L46.6103 42.3189L48.3907 44.9049L63.6695 67.1032H57.4286ZM66.2496 65.3287L50.5015 42.4499L48.7211 39.8623L37.4559 23.4963L36.5222 22.14H22.6797L26.0556 27.0457L41.034 48.8088L42.8145 51.3935L54.8493 68.8797L55.7831 70.2344H69.6257L66.2496 65.3287Z" fill="black"/>
<path d="M43.1441 46.351L44.9246 48.9369L42.8139 51.3935L26.6186 70.2344H22.625L41.0333 48.8088L43.1441 46.351Z" fill="black"/>
<path d="M67.9582 22.1394L50.5006 42.4493L48.3898 44.9043L46.6094 42.3183L48.7202 39.8617L60.5457 26.0975L63.9645 22.1394H67.9582Z" fill="black"/>
</svg>
